<svg width="136" height="142" viewBox="0 0 136 142" fill="none" xmlns="http://www.w3.org/2000/svg">
<rect x="20" width="96" height="96" rx="15" fill="#2B2B2B"/>
<path d="M81.2158 44.9785C80.504 45.6946 79.959 46.5589 79.6195 47.5095C79.2799 48.4604 79.1543 49.4743 79.2514 50.4792L79.2176 50.4454C79.3175 51.6284 79.1578 52.8187 78.7501 53.9337C78.3424 55.0485 77.6964 56.0609 76.8571 56.9004C76.0176 57.7397 75.0052 58.3859 73.8902 58.7935C72.7754 59.2012 71.5849 59.3608 70.4021 59.2609L70.4359 59.2947C69.021 59.163 67.5999 59.4709 66.3662 60.1764C65.1327 60.882 64.1468 61.9508 63.543 63.2372C62.9392 64.5237 62.7467 65.9649 62.992 67.3648C63.2374 68.7645 63.9085 70.0545 64.9138 71.0589C65.9191 72.0632 67.2096 72.7331 68.6095 72.9771C70.0096 73.2212 71.4506 73.0274 72.7365 72.4225C74.0224 71.8174 75.0902 70.8307 75.7947 69.5964C76.4991 68.3622 76.8058 66.9409 76.6728 65.526L76.7085 65.5598C76.6086 64.377 76.7681 63.1865 77.1758 62.0716C77.5835 60.9568 78.2297 59.9443 79.069 59.1048C79.9085 58.2655 80.9209 57.6193 82.0357 57.2118C83.1507 56.8041 84.341 56.6444 85.524 56.7443L85.4883 56.7105C86.644 56.8144 87.8075 56.6249 88.8706 56.1595C89.9336 55.6941 90.8621 54.9679 91.5697 54.0482C92.2774 53.1286 92.7416 52.0449 92.9189 50.8982C93.0964 49.7513 92.9814 48.5783 92.5848 47.4875C92.1882 46.397 91.5226 45.4242 90.6499 44.6592C89.7772 43.8943 88.7255 43.3621 87.5923 43.1119C86.4591 42.8618 85.281 42.9016 84.1673 43.2278C83.0536 43.5542 82.0404 44.1563 81.2214 44.9785H81.2158Z" fill="#F8FBFC"/>
<path d="M67.3616 54.8663L67.3259 54.8325C68.3312 54.9337 69.3465 54.8103 70.2984 54.4712C71.2502 54.132 72.1149 53.5857 72.8296 52.8715C73.5442 52.1573 74.0915 51.293 74.4312 50.3414C74.7712 49.3898 74.8953 48.3747 74.7948 47.3692L74.8305 47.403C74.7306 46.2201 74.8902 45.0298 75.2977 43.9148C75.7055 42.8 76.3517 41.7875 77.191 40.9481C78.0305 40.1088 79.0429 39.4625 80.1577 39.055C81.2727 38.6472 82.463 38.4877 83.646 38.5876L83.6103 38.5538C85.0254 38.6867 86.4468 38.3798 87.6811 37.675C88.9155 36.9703 89.9022 35.9019 90.507 34.6157C91.1117 33.3295 91.3049 31.8881 91.0604 30.488C90.8159 29.0879 90.1454 27.7974 89.1403 26.7924C88.1354 25.7874 86.8448 25.1169 85.4447 24.8723C84.0447 24.6277 82.6033 24.821 81.317 25.4258C80.0308 26.0305 78.9625 27.0173 78.2577 28.2516C77.5529 29.4858 77.246 30.9074 77.379 32.3225L77.3452 32.2868C77.4453 33.4697 77.286 34.6603 76.8785 35.7753C76.471 36.8903 75.8247 37.903 74.9854 38.7425C74.146 39.5818 73.1333 40.228 72.0183 40.6356C70.9032 41.0431 69.7127 41.2024 68.5297 41.1023L68.5635 41.1379C67.5582 41.0367 66.5428 41.1601 65.591 41.4993C64.6392 41.8383 63.7745 42.3848 63.0598 43.099C62.345 43.8132 61.7979 44.6775 61.458 45.629C61.1183 46.5806 60.9941 47.5957 61.0946 48.6012L61.0608 48.5674C61.1603 49.7502 61.0005 50.9405 60.5928 52.0553C60.1849 53.1699 59.5388 54.1823 58.6996 55.0216C57.8602 55.8609 56.8479 56.507 55.7331 56.9149C54.6184 57.3226 53.4281 57.4824 52.2453 57.3829L52.2791 57.4167C50.8641 57.2837 49.4425 57.5906 48.2082 58.2954C46.974 59.0002 45.9872 60.0685 45.3824 61.3547C44.7777 62.641 44.5844 64.0824 44.829 65.4824C45.0735 66.8825 45.7441 68.1731 46.749 69.178C47.7541 70.1831 49.0446 70.8536 50.4447 71.0981C51.8448 71.3426 53.2862 71.1494 54.5724 70.5447C55.8586 69.9399 56.927 68.9532 57.6317 67.719C58.3365 66.4845 58.6434 65.0631 58.5104 63.648L58.5461 63.6818C58.4462 62.4988 58.6058 61.3085 59.0136 60.1935C59.4211 59.0787 60.0673 58.0663 60.9066 57.2268C61.7461 56.3875 62.7585 55.7413 63.8733 55.3338C64.9883 54.926 66.1786 54.7664 67.3616 54.8663Z" fill="#F8FBFC"/>
<path d="M54.775 51.0971C55.4869 50.3812 56.0318 49.5169 56.3711 48.5661C56.7103 47.6152 56.8355 46.6011 56.7376 45.5964L56.7732 45.6302C56.6733 44.447 56.8329 43.2562 57.2408 42.141C57.6487 41.0258 58.2952 40.0132 59.1351 39.1737C59.9749 38.3343 60.9877 37.6882 62.1031 37.2808C63.2185 36.8733 64.4093 36.7143 65.5925 36.8147L65.5568 36.7809C66.9713 36.9134 68.3924 36.6064 69.6261 35.9017C70.8598 35.197 71.8459 34.1289 72.4505 32.8431C73.0548 31.5573 73.2479 30.1164 73.0034 28.7168C72.7588 27.3173 72.0884 26.0272 71.0838 25.0226C70.0793 24.0179 68.7891 23.3476 67.3896 23.1031C65.9901 22.8585 64.549 23.0516 63.2633 23.656C61.9775 24.2604 60.9094 25.2467 60.2048 26.4803C59.5 27.714 59.1929 29.135 59.3255 30.5496L59.2917 30.5158C59.3916 31.6987 59.232 32.8891 58.8243 34.004C58.4165 35.1189 57.7705 36.1313 56.9311 36.9707C56.0917 37.8101 55.0793 38.4562 53.9644 38.8638C52.8495 39.2715 51.6591 39.4312 50.4762 39.3313L50.51 39.3651C49.3542 39.2614 48.191 39.4513 47.1281 39.9168C46.0651 40.3824 45.1369 41.1088 44.4294 42.0287C43.722 42.9483 43.2581 44.032 43.0809 45.1787C42.9037 46.3256 43.0188 47.4986 43.4155 48.589C43.8123 49.6796 44.4779 50.6522 45.3507 51.4169C46.2235 52.1819 47.2752 52.7139 48.4083 52.9641C49.5415 53.214 50.7194 53.174 51.8331 52.8478C52.9467 52.5214 53.9598 51.9193 54.7788 51.0971H54.775Z" fill="#F8FBFC"/>
<path d="M11.112 132L5.016 124.536V132H1.656V115.248H5.016V122.76L11.112 115.248H15.168L8.256 123.552L15.36 132H11.112ZM16.4661 125.304C16.4661 123.96 16.7301 122.768 17.2581 121.728C17.8021 120.688 18.5301 119.888 19.4421 119.328C20.3701 118.768 21.4021 118.488 22.5381 118.488C23.5301 118.488 24.3941 118.688 25.1301 119.088C25.8821 119.488 26.4821 119.992 26.9301 120.6V118.704H30.3141V132H26.9301V130.056C26.4981 130.68 25.8981 131.2 25.1301 131.616C24.3781 132.016 23.5061 132.216 22.5141 132.216C21.3941 132.216 20.3701 131.928 19.4421 131.352C18.5301 130.776 17.8021 129.968 17.2581 128.928C16.7301 127.872 16.4661 126.664 16.4661 125.304ZM26.9301 125.352C26.9301 124.536 26.7701 123.84 26.4501 123.264C26.1301 122.672 25.6981 122.224 25.1541 121.92C24.6101 121.6 24.0261 121.44 23.4021 121.44C22.7781 121.44 22.2021 121.592 21.6741 121.896C21.1461 122.2 20.7141 122.648 20.3781 123.24C20.0581 123.816 19.8981 124.504 19.8981 125.304C19.8981 126.104 20.0581 126.808 20.3781 127.416C20.7141 128.008 21.1461 128.464 21.6741 128.784C22.2181 129.104 22.7941 129.264 23.4021 129.264C24.0261 129.264 24.6101 129.112 25.1541 128.808C25.6981 128.488 26.1301 128.04 26.4501 127.464C26.7701 126.872 26.9301 126.168 26.9301 125.352ZM32.4917 125.304C32.4917 123.96 32.7557 122.768 33.2837 121.728C33.8277 120.688 34.5637 119.888 35.4917 119.328C36.4197 118.768 37.4517 118.488 38.5877 118.488C39.4517 118.488 40.2757 118.68 41.0597 119.064C41.8437 119.432 42.4677 119.928 42.9317 120.552V114.24H46.3397V132H42.9317V130.032C42.5157 130.688 41.9317 131.216 41.1797 131.616C40.4277 132.016 39.5557 132.216 38.5637 132.216C37.4437 132.216 36.4197 131.928 35.4917 131.352C34.5637 130.776 33.8277 129.968 33.2837 128.928C32.7557 127.872 32.4917 126.664 32.4917 125.304ZM42.9557 125.352C42.9557 124.536 42.7957 123.84 42.4757 123.264C42.1557 122.672 41.7237 122.224 41.1797 121.92C40.6357 121.6 40.0517 121.44 39.4277 121.44C38.8037 121.44 38.2277 121.592 37.6997 121.896C37.1717 122.2 36.7397 122.648 36.4037 123.24C36.0837 123.816 35.9237 124.504 35.9237 125.304C35.9237 126.104 36.0837 126.808 36.4037 127.416C36.7397 128.008 37.1717 128.464 37.6997 128.784C38.2437 129.104 38.8197 129.264 39.4277 129.264C40.0517 129.264 40.6357 129.112 41.1797 128.808C41.7237 128.488 42.1557 128.04 42.4757 127.464C42.7957 126.872 42.9557 126.168 42.9557 125.352ZM52.7413 120.768C53.1733 120.064 53.7333 119.512 54.4213 119.112C55.1253 118.712 55.9253 118.512 56.8213 118.512V122.04H55.9333C54.8773 122.04 54.0773 122.288 53.5333 122.784C53.0053 123.28 52.7413 124.144 52.7413 125.376V132H49.3813V118.704H52.7413V120.768ZM64.7484 132.216C63.4684 132.216 62.3164 131.936 61.2924 131.376C60.2684 130.8 59.4604 129.992 58.8684 128.952C58.2924 127.912 58.0044 126.712 58.0044 125.352C58.0044 123.992 58.3004 122.792 58.8924 121.752C59.5004 120.712 60.3244 119.912 61.3644 119.352C62.4044 118.776 63.5644 118.488 64.8444 118.488C66.1244 118.488 67.2844 118.776 68.3244 119.352C69.3644 119.912 70.1804 120.712 70.7724 121.752C71.3804 122.792 71.6844 123.992 71.6844 125.352C71.6844 126.712 71.3724 127.912 70.7484 128.952C70.1404 129.992 69.3084 130.8 68.2524 131.376C67.2124 131.936 66.0444 132.216 64.7484 132.216ZM64.7484 129.288C65.3564 129.288 65.9244 129.144 66.4524 128.856C66.9964 128.552 67.4284 128.104 67.7484 127.512C68.0684 126.92 68.2284 126.2 68.2284 125.352C68.2284 124.088 67.8924 123.12 67.2204 122.448C66.5644 121.76 65.7564 121.416 64.7964 121.416C63.8364 121.416 63.0284 121.76 62.3724 122.448C61.7324 123.12 61.4124 124.088 61.4124 125.352C61.4124 126.616 61.7244 127.592 62.3484 128.28C62.9884 128.952 63.7884 129.288 64.7484 129.288ZM79.4531 128.904L82.8131 118.704H86.3891L81.4691 132H77.3891L72.4931 118.704H76.0931L79.4531 128.904ZM93.1243 132.216C92.0363 132.216 91.0603 132.024 90.1963 131.64C89.3323 131.24 88.6443 130.704 88.1323 130.032C87.6363 129.36 87.3643 128.616 87.3163 127.8H90.7003C90.7643 128.312 91.0123 128.736 91.4443 129.072C91.8923 129.408 92.4443 129.576 93.1003 129.576C93.7403 129.576 94.2363 129.448 94.5883 129.192C94.9563 128.936 95.1403 128.608 95.1403 128.208C95.1403 127.776 94.9163 127.456 94.4683 127.248C94.0363 127.024 93.3403 126.784 92.3803 126.528C91.3883 126.288 90.5723 126.04 89.9323 125.784C89.3083 125.528 88.7643 125.136 88.3003 124.608C87.8523 124.08 87.6283 123.368 87.6283 122.472C87.6283 121.736 87.8363 121.064 88.2523 120.456C88.6843 119.848 89.2923 119.368 90.0763 119.016C90.8763 118.664 91.8123 118.488 92.8843 118.488C94.4683 118.488 95.7323 118.888 96.6763 119.688C97.6203 120.472 98.1403 121.536 98.2363 122.88H95.0203C94.9723 122.352 94.7483 121.936 94.3483 121.632C93.9643 121.312 93.4443 121.152 92.7883 121.152C92.1803 121.152 91.7083 121.264 91.3723 121.488C91.0523 121.712 90.8923 122.024 90.8923 122.424C90.8923 122.872 91.1163 123.216 91.5643 123.456C92.0123 123.68 92.7083 123.912 93.6523 124.152C94.6123 124.392 95.4043 124.64 96.0283 124.896C96.6523 125.152 97.1883 125.552 97.6363 126.096C98.1003 126.624 98.3403 127.328 98.3563 128.208C98.3563 128.976 98.1403 129.664 97.7083 130.272C97.2923 130.88 96.6843 131.36 95.8843 131.712C95.1003 132.048 94.1803 132.216 93.1243 132.216ZM108.746 132L104.234 126.336V132H100.874V114.24H104.234V124.344L108.698 118.704H113.066L107.21 125.376L113.114 132H108.746ZM113.786 125.304C113.786 123.96 114.05 122.768 114.578 121.728C115.122 120.688 115.85 119.888 116.762 119.328C117.69 118.768 118.722 118.488 119.858 118.488C120.85 118.488 121.714 118.688 122.45 119.088C123.202 119.488 123.802 119.992 124.25 120.6V118.704H127.634V132H124.25V130.056C123.818 130.68 123.218 131.2 122.45 131.616C121.698 132.016 120.826 132.216 119.834 132.216C118.714 132.216 117.69 131.928 116.762 131.352C115.85 130.776 115.122 129.968 114.578 128.928C114.05 127.872 113.786 126.664 113.786 125.304ZM124.25 125.352C124.25 124.536 124.09 123.84 123.77 123.264C123.45 122.672 123.018 122.224 122.474 121.92C121.93 121.6 121.346 121.44 120.722 121.44C120.098 121.44 119.522 121.592 118.994 121.896C118.466 122.2 118.034 122.648 117.698 123.24C117.378 123.816 117.218 124.504 117.218 125.304C117.218 126.104 117.378 126.808 117.698 127.416C118.034 128.008 118.466 128.464 118.994 128.784C119.538 129.104 120.114 129.264 120.722 129.264C121.346 129.264 121.93 129.112 122.474 128.808C123.018 128.488 123.45 128.04 123.77 127.464C124.09 126.872 124.25 126.168 124.25 125.352ZM132.164 132.168C131.556 132.168 131.052 131.984 130.652 131.616C130.268 131.232 130.076 130.76 130.076 130.2C130.076 129.64 130.268 129.176 130.652 128.808C131.052 128.424 131.556 128.232 132.164 128.232C132.756 128.232 133.244 128.424 133.628 128.808C134.012 129.176 134.204 129.64 134.204 130.2C134.204 130.76 134.012 131.232 133.628 131.616C133.244 131.984 132.756 132.168 132.164 132.168Z" fill="#111111"/>
</svg>
