<svg xmlns="http://www.w3.org/2000/svg" version="1.1" xmlns:xlink="http://www.w3.org/1999/xlink" xmlns:svgjs="http://svgjs.com/svgjs" width="1920" height="1080" preserveAspectRatio="none" viewBox="0 0 1920 1080">
    <g mask="url(&quot;#SvgjsMask1027&quot;)" fill="none">
        <path d="M769.397,91.606C811.488,92.613,850.044,66.629,869.385,29.231C887.348,-5.503,876.567,-45.235,857.952,-79.624C838.121,-116.259,811.01,-153.55,769.397,-155.483C725.249,-157.533,685.459,-127.925,665.35,-88.569C646.845,-52.352,657.03,-10.585,677.369,24.635C697.704,59.848,728.746,90.633,769.397,91.606" fill="rgba(53, 147, 214, 0.43)" class="triangle-float3"></path>
        <path d="M-55.15 710.69 a271.13 271.13 0 1 0 542.26 0 a271.13 271.13 0 1 0 -542.26 0z" fill="rgba(53, 147, 214, 0.43)" class="triangle-float1"></path>
        <path d="M-124.85 838.25 a354.61 354.61 0 1 0 709.22 0 a354.61 354.61 0 1 0 -709.22 0z" fill="rgba(53, 147, 214, 0.43)" class="triangle-float3"></path>
        <path d="M232.362,720.856C280.664,719.227,320.837,688.383,345.628,646.897C371.191,604.119,384.758,551.059,359.496,508.102C334.494,465.588,281.602,451.471,232.362,454.294C188.173,456.827,151.905,483.986,128.196,521.363C102.239,562.284,82.614,612.055,105.043,655.011C128.746,700.405,181.181,722.582,232.362,720.856" fill="rgba(53, 147, 214, 0.43)" class="triangle-float2"></path>
        <path d="M1572.618,480.696C1624.256,480.838,1682.774,474.85,1707.866,429.718C1732.553,385.314,1705.587,333.471,1678.294,290.62C1653.616,251.874,1618.535,218.722,1572.618,217.37C1524.514,215.953,1481.325,243.401,1455.583,284.062C1427.7,328.104,1411.99,384.187,1438.65,428.979C1464.89,473.066,1521.313,480.555,1572.618,480.696" fill="rgba(53, 147, 214, 0.43)" class="triangle-float2"></path>
        <path d="M327.62 741.16 a250.12 250.12 0 1 0 500.24 0 a250.12 250.12 0 1 0 -500.24 0z" fill="rgba(53, 147, 214, 0.43)" class="triangle-float3"></path>
        <path d="M1691.434,1354.459C1790.555,1354.727,1872.919,1281.564,1916.849,1192.709C1956.094,1113.33,1933.686,1024.818,1893.393,945.965C1847.824,856.786,1791.579,752.152,1691.434,751.572C1590.808,750.989,1530.927,853.871,1485.379,943.6C1445.194,1022.764,1428.32,1112.138,1468.12,1191.496C1512.397,1279.782,1592.667,1354.192,1691.434,1354.459" fill="rgba(53, 147, 214, 0.43)" class="triangle-float2"></path>
        <path d="M791.42 92.01 a232.82 232.82 0 1 0 465.64 0 a232.82 232.82 0 1 0 -465.64 0z" fill="rgba(53, 147, 214, 0.43)" class="triangle-float2"></path>
    </g>
    <defs>
        <mask id="SvgjsMask1027">
            <rect width="1920" height="1080" fill="#ffffff"></rect>
        </mask>
        <style>
            @keyframes float1 {
                0%{transform: translate(0, 0)}
                50%{transform: translate(-10px, 0)}
                100%{transform: translate(0, 0)}
            }

            .triangle-float1 {
                animation: float1 5s infinite;
            }

            @keyframes float2 {
                0%{transform: translate(0, 0)}
                50%{transform: translate(-5px, -5px)}
                100%{transform: translate(0, 0)}
            }

            .triangle-float2 {
                animation: float2 4s infinite;
            }

            @keyframes float3 {
                0%{transform: translate(0, 0)}
                50%{transform: translate(0, -10px)}
                100%{transform: translate(0, 0)}
            }

            .triangle-float3 {
                animation: float3 6s infinite;
            }
        </style>
    </defs>
</svg>