<svg width="382" height="96" viewBox="0 0 382 96" fill="none" xmlns="http://www.w3.org/2000/svg">
<rect width="96" height="96" rx="15" fill="#2B2B2B"/>
<path d="M61.2158 44.9785C60.504 45.6946 59.959 46.5589 59.6195 47.5095C59.2799 48.4604 59.1543 49.4743 59.2514 50.4792L59.2176 50.4454C59.3175 51.6284 59.1578 52.8187 58.7501 53.9337C58.3424 55.0485 57.6964 56.0609 56.8571 56.9004C56.0176 57.7397 55.0052 58.3859 53.8902 58.7935C52.7754 59.2012 51.5849 59.3608 50.4021 59.2609L50.4359 59.2947C49.021 59.163 47.5999 59.4709 46.3662 60.1764C45.1327 60.882 44.1468 61.9508 43.543 63.2372C42.9392 64.5237 42.7467 65.9649 42.992 67.3648C43.2374 68.7645 43.9085 70.0545 44.9138 71.0589C45.9191 72.0632 47.2096 72.7331 48.6095 72.9771C50.0096 73.2212 51.4506 73.0274 52.7365 72.4225C54.0224 71.8174 55.0902 70.8307 55.7947 69.5964C56.4991 68.3622 56.8058 66.9409 56.6728 65.526L56.7085 65.5598C56.6086 64.377 56.7681 63.1865 57.1758 62.0716C57.5835 60.9568 58.2297 59.9443 59.069 59.1048C59.9085 58.2655 60.9209 57.6193 62.0357 57.2118C63.1507 56.8041 64.341 56.6444 65.524 56.7443L65.4883 56.7105C66.644 56.8144 67.8075 56.6249 68.8706 56.1595C69.9336 55.6941 70.8621 54.9679 71.5697 54.0482C72.2774 53.1286 72.7416 52.0449 72.9189 50.8982C73.0964 49.7513 72.9814 48.5783 72.5848 47.4875C72.1882 46.397 71.5226 45.4242 70.6499 44.6592C69.7772 43.8943 68.7255 43.3621 67.5923 43.1119C66.4591 42.8618 65.281 42.9016 64.1673 43.2278C63.0536 43.5542 62.0404 44.1563 61.2214 44.9785H61.2158Z" fill="#F8FBFC"/>
<path d="M47.3616 54.8663L47.3259 54.8325C48.3312 54.9337 49.3465 54.8103 50.2984 54.4712C51.2502 54.132 52.1149 53.5857 52.8296 52.8715C53.5442 52.1573 54.0915 51.293 54.4312 50.3414C54.7711 49.3898 54.8953 48.3747 54.7948 47.3692L54.8305 47.403C54.7306 46.2201 54.8902 45.0298 55.2977 43.9148C55.7055 42.8 56.3517 41.7875 57.191 40.9481C58.0305 40.1088 59.0429 39.4625 60.1577 39.055C61.2727 38.6472 62.463 38.4877 63.6459 38.5876L63.6103 38.5538C65.0254 38.6867 66.4468 38.3798 67.6811 37.675C68.9155 36.9703 69.9022 35.9019 70.5069 34.6157C71.1117 33.3295 71.3049 31.8881 71.0604 30.488C70.8159 29.0879 70.1454 27.7974 69.1403 26.7924C68.1354 25.7874 66.8448 25.1169 65.4447 24.8723C64.0447 24.6277 62.6033 24.821 61.317 25.4258C60.0307 26.0305 58.9625 27.0173 58.2577 28.2516C57.5529 29.4858 57.246 30.9074 57.379 32.3225L57.3452 32.2868C57.4453 33.4697 57.286 34.6603 56.8785 35.7753C56.4709 36.8903 55.8247 37.903 54.9854 38.7425C54.1459 39.5818 53.1333 40.228 52.0183 40.6356C50.9032 41.0431 49.7127 41.2024 48.5297 41.1023L48.5635 41.1379C47.5582 41.0367 46.5428 41.1601 45.591 41.4993C44.6392 41.8383 43.7745 42.3848 43.0598 43.099C42.345 43.8132 41.7979 44.6775 41.458 45.629C41.1183 46.5806 40.9941 47.5957 41.0946 48.6012L41.0608 48.5674C41.1603 49.7502 41.0005 50.9405 40.5928 52.0553C40.1849 53.1699 39.5388 54.1823 38.6995 55.0216C37.8602 55.8609 36.8479 56.507 35.7331 56.9149C34.6184 57.3226 33.4281 57.4824 32.2453 57.3829L32.2791 57.4167C30.8641 57.2837 29.4425 57.5906 28.2082 58.2954C26.974 59.0002 25.9872 60.0685 25.3824 61.3547C24.7777 62.641 24.5844 64.0824 24.8289 65.4824C25.0735 66.8825 25.7441 68.1731 26.749 69.178C27.754 70.1831 29.0446 70.8536 30.4447 71.0981C31.8448 71.3426 33.2862 71.1494 34.5724 70.5447C35.8586 69.9399 36.927 68.9532 37.6317 67.719C38.3365 66.4845 38.6434 65.0631 38.5104 63.648L38.5461 63.6818C38.4462 62.4988 38.6058 61.3085 39.0136 60.1935C39.4211 59.0787 40.0673 58.0663 40.9066 57.2268C41.7461 56.3875 42.7585 55.7413 43.8733 55.3338C44.9883 54.926 46.1786 54.7664 47.3616 54.8663Z" fill="#F8FBFC"/>
<path d="M34.775 51.0971C35.4869 50.3812 36.0318 49.5169 36.3711 48.5661C36.7103 47.6152 36.8355 46.6011 36.7376 45.5964L36.7732 45.6302C36.6733 44.447 36.8329 43.2562 37.2408 42.141C37.6487 41.0258 38.2952 40.0132 39.1351 39.1737C39.9749 38.3343 40.9877 37.6882 42.1031 37.2808C43.2185 36.8733 44.4093 36.7143 45.5925 36.8147L45.5568 36.7809C46.9713 36.9134 48.3924 36.6064 49.6261 35.9017C50.8598 35.197 51.8459 34.1289 52.4505 32.8431C53.0548 31.5573 53.2479 30.1164 53.0034 28.7168C52.7588 27.3173 52.0884 26.0272 51.0838 25.0226C50.0793 24.0179 48.7891 23.3476 47.3896 23.1031C45.9901 22.8585 44.549 23.0516 43.2633 23.656C41.9775 24.2604 40.9094 25.2467 40.2048 26.4803C39.5 27.714 39.1929 29.135 39.3255 30.5496L39.2917 30.5158C39.3916 31.6987 39.232 32.8891 38.8243 34.004C38.4165 35.1189 37.7705 36.1313 36.9311 36.9707C36.0917 37.8101 35.0793 38.4562 33.9644 38.8638C32.8495 39.2715 31.6591 39.4312 30.4762 39.3313L30.51 39.3651C29.3542 39.2614 28.191 39.4513 27.1281 39.9168C26.0651 40.3824 25.1369 41.1088 24.4294 42.0287C23.722 42.9483 23.2581 44.032 23.0809 45.1787C22.9037 46.3256 23.0188 47.4986 23.4155 48.589C23.8123 49.6796 24.4779 50.6522 25.3507 51.4169C26.2235 52.1819 27.2752 52.7139 28.4083 52.9641C29.5415 53.214 30.7194 53.174 31.8331 52.8478C32.9467 52.5214 33.9598 51.9193 34.7788 51.0971H34.775Z" fill="#F8FBFC"/>
<path d="M133.224 65L121.032 50.072V65H114.312V31.496H121.032V46.52L133.224 31.496H141.336L127.512 48.104L141.72 65H133.224ZM143.932 51.608C143.932 48.92 144.46 46.536 145.516 44.456C146.604 42.376 148.06 40.776 149.884 39.656C151.74 38.536 153.804 37.976 156.076 37.976C158.06 37.976 159.788 38.376 161.26 39.176C162.764 39.976 163.964 40.984 164.86 42.2V38.408H171.628V65H164.86V61.112C163.996 62.36 162.796 63.4 161.26 64.232C159.756 65.032 158.012 65.432 156.028 65.432C153.788 65.432 151.74 64.856 149.884 63.704C148.06 62.552 146.604 60.936 145.516 58.856C144.46 56.744 143.932 54.328 143.932 51.608ZM164.86 51.704C164.86 50.072 164.54 48.68 163.9 47.528C163.26 46.344 162.396 45.448 161.308 44.84C160.22 44.2 159.052 43.88 157.804 43.88C156.556 43.88 155.404 44.184 154.348 44.792C153.292 45.4 152.428 46.296 151.756 47.48C151.116 48.632 150.796 50.008 150.796 51.608C150.796 53.208 151.116 54.616 151.756 55.832C152.428 57.016 153.292 57.928 154.348 58.568C155.436 59.208 156.588 59.528 157.804 59.528C159.052 59.528 160.22 59.224 161.308 58.616C162.396 57.976 163.26 57.08 163.9 55.928C164.54 54.744 164.86 53.336 164.86 51.704ZM175.983 51.608C175.983 48.92 176.511 46.536 177.567 44.456C178.655 42.376 180.127 40.776 181.983 39.656C183.839 38.536 185.903 37.976 188.175 37.976C189.903 37.976 191.551 38.36 193.119 39.128C194.687 39.864 195.935 40.856 196.863 42.104V29.48H203.679V65H196.863V61.064C196.031 62.376 194.863 63.432 193.359 64.232C191.855 65.032 190.111 65.432 188.127 65.432C185.887 65.432 183.839 64.856 181.983 63.704C180.127 62.552 178.655 60.936 177.567 58.856C176.511 56.744 175.983 54.328 175.983 51.608ZM196.911 51.704C196.911 50.072 196.591 48.68 195.951 47.528C195.311 46.344 194.447 45.448 193.359 44.84C192.271 44.2 191.103 43.88 189.855 43.88C188.607 43.88 187.455 44.184 186.399 44.792C185.343 45.4 184.479 46.296 183.807 47.48C183.167 48.632 182.847 50.008 182.847 51.608C182.847 53.208 183.167 54.616 183.807 55.832C184.479 57.016 185.343 57.928 186.399 58.568C187.487 59.208 188.639 59.528 189.855 59.528C191.103 59.528 192.271 59.224 193.359 58.616C194.447 57.976 195.311 57.08 195.951 55.928C196.591 54.744 196.911 53.336 196.911 51.704ZM216.483 42.536C217.347 41.128 218.467 40.024 219.843 39.224C221.251 38.424 222.851 38.024 224.643 38.024V45.08H222.867C220.755 45.08 219.155 45.576 218.067 46.568C217.011 47.56 216.483 49.288 216.483 51.752V65H209.763V38.408H216.483V42.536ZM240.497 65.432C237.937 65.432 235.633 64.872 233.585 63.752C231.537 62.6 229.921 60.984 228.737 58.904C227.585 56.824 227.009 54.424 227.009 51.704C227.009 48.984 227.601 46.584 228.785 44.504C230.001 42.424 231.649 40.824 233.729 39.704C235.809 38.552 238.129 37.976 240.689 37.976C243.249 37.976 245.569 38.552 247.649 39.704C249.729 40.824 251.361 42.424 252.545 44.504C253.761 46.584 254.369 48.984 254.369 51.704C254.369 54.424 253.745 56.824 252.497 58.904C251.281 60.984 249.617 62.6 247.505 63.752C245.425 64.872 243.089 65.432 240.497 65.432ZM240.497 59.576C241.713 59.576 242.849 59.288 243.905 58.712C244.993 58.104 245.857 57.208 246.497 56.024C247.137 54.84 247.457 53.4 247.457 51.704C247.457 49.176 246.785 47.24 245.441 45.896C244.129 44.52 242.513 43.832 240.593 43.832C238.673 43.832 237.057 44.52 235.745 45.896C234.465 47.24 233.825 49.176 233.825 51.704C233.825 54.232 234.449 56.184 235.697 57.56C236.977 58.904 238.577 59.576 240.497 59.576ZM269.906 58.808L276.626 38.408H283.778L273.938 65H265.778L255.986 38.408H263.186L269.906 58.808ZM297.249 65.432C295.073 65.432 293.121 65.048 291.393 64.28C289.665 63.48 288.289 62.408 287.265 61.064C286.273 59.72 285.729 58.232 285.633 56.6H292.401C292.529 57.624 293.025 58.472 293.889 59.144C294.785 59.816 295.889 60.152 297.201 60.152C298.481 60.152 299.473 59.896 300.177 59.384C300.913 58.872 301.281 58.216 301.281 57.416C301.281 56.552 300.833 55.912 299.937 55.496C299.073 55.048 297.681 54.568 295.761 54.056C293.777 53.576 292.145 53.08 290.865 52.568C289.617 52.056 288.529 51.272 287.601 50.216C286.705 49.16 286.257 47.736 286.257 45.944C286.257 44.472 286.673 43.128 287.505 41.912C288.369 40.696 289.585 39.736 291.153 39.032C292.753 38.328 294.625 37.976 296.769 37.976C299.937 37.976 302.465 38.776 304.353 40.376C306.241 41.944 307.281 44.072 307.473 46.76H301.041C300.945 45.704 300.497 44.872 299.697 44.264C298.929 43.624 297.889 43.304 296.577 43.304C295.361 43.304 294.417 43.528 293.745 43.976C293.105 44.424 292.785 45.048 292.785 45.848C292.785 46.744 293.233 47.432 294.129 47.912C295.025 48.36 296.417 48.824 298.305 49.304C300.225 49.784 301.809 50.28 303.057 50.792C304.305 51.304 305.377 52.104 306.273 53.192C307.201 54.248 307.681 55.656 307.713 57.416C307.713 58.952 307.281 60.328 306.417 61.544C305.585 62.76 304.369 63.72 302.769 64.424C301.201 65.096 299.361 65.432 297.249 65.432ZM328.493 65L319.469 53.672V65H312.749V29.48H319.469V49.688L328.397 38.408H337.133L325.421 51.752L337.229 65H328.493ZM338.572 51.608C338.572 48.92 339.1 46.536 340.156 44.456C341.244 42.376 342.7 40.776 344.524 39.656C346.38 38.536 348.444 37.976 350.716 37.976C352.7 37.976 354.428 38.376 355.9 39.176C357.404 39.976 358.604 40.984 359.5 42.2V38.408H366.268V65H359.5V61.112C358.636 62.36 357.436 63.4 355.9 64.232C354.396 65.032 352.652 65.432 350.668 65.432C348.428 65.432 346.38 64.856 344.524 63.704C342.7 62.552 341.244 60.936 340.156 58.856C339.1 56.744 338.572 54.328 338.572 51.608ZM359.5 51.704C359.5 50.072 359.18 48.68 358.54 47.528C357.9 46.344 357.036 45.448 355.948 44.84C354.86 44.2 353.692 43.88 352.444 43.88C351.196 43.88 350.044 44.184 348.988 44.792C347.932 45.4 347.068 46.296 346.396 47.48C345.756 48.632 345.436 50.008 345.436 51.608C345.436 53.208 345.756 54.616 346.396 55.832C347.068 57.016 347.932 57.928 348.988 58.568C350.076 59.208 351.228 59.528 352.444 59.528C353.692 59.528 354.86 59.224 355.948 58.616C357.036 57.976 357.9 57.08 358.54 55.928C359.18 54.744 359.5 53.336 359.5 51.704ZM375.327 65.336C374.111 65.336 373.103 64.968 372.303 64.232C371.535 63.464 371.151 62.52 371.151 61.4C371.151 60.28 371.535 59.352 372.303 58.616C373.103 57.848 374.111 57.464 375.327 57.464C376.511 57.464 377.487 57.848 378.255 58.616C379.023 59.352 379.407 60.28 379.407 61.4C379.407 62.52 379.023 63.464 378.255 64.232C377.487 64.968 376.511 65.336 375.327 65.336Z" fill="#2B2B2B"/>
</svg>
