<svg width="571" height="569" viewBox="0 0 571 569" fill="none" xmlns="http://www.w3.org/2000/svg">
<g clip-path="url(#clip0_122_777)">
<path d="M115.43 525.08C108.09 518.39 100.76 511.26 94.85 503.25C92.06 499.47 89.57 495.31 88.46 490.71C87.51 486.74 88.79 482.64 87.64 478.79C86.48 474.9 83.96 471.22 82.18 467.59C80.04 463.25 77.96 458.87 76.01 454.44C71.89 445.12 68.29 435.54 65.72 425.67C63.36 416.63 61.46 406.58 64.5 397.47C66.51 391.45 71.18 384.71 78.44 388.3C82.61 390.36 86.52 394.99 89.51 398.49C101.9 412.96 109.46 431.88 116.46 449.37C124.75 470.07 131.32 491.42 136.24 513.16C136.45 514.1 137.9 513.7 137.69 512.76C132.56 490.11 125.65 467.89 116.87 446.38C109.41 428.1 101.38 408.19 87.33 393.87C82.8 389.25 76.33 382.57 69.64 387.16C63.24 391.55 61.44 400.86 61.47 408.06C61.51 418.3 64.64 428.58 67.96 438.17C71.54 448.52 76.05 458.52 80.89 468.33C82.23 471.04 83.66 473.71 84.97 476.43C86.7 480.03 86.29 482.48 86.38 486.25C86.49 490.88 88.14 495.27 90.43 499.25C96.36 509.51 105.7 518.21 114.37 526.12C115.08 526.79 116.15 525.73 115.43 525.08Z" fill="#102067"/>
<path d="M69.54 388.67C90.23 432.72 109.62 477.38 127.69 522.57C128.04 523.46 129.5 523.07 129.14 522.17C111.03 476.85 91.59 432.08 70.84 387.91C70.42 387.04 69.13 387.8 69.54 388.67Z" fill="#102067"/>
<path d="M75.31 454.98C88.89 459.75 100.54 468.4 109.01 480.04C109.57 480.81 110.87 480.07 110.31 479.28C101.58 467.3 89.7 458.45 75.71 453.53C74.8 453.21 74.41 454.66 75.31 454.98Z" fill="#102067"/>
<path d="M96.47 406.66C96.65 422.93 97.94 439.12 100.31 455.21C100.45 456.16 101.9 455.76 101.76 454.81C99.41 438.85 98.15 422.78 97.97 406.65C97.96 405.69 96.46 405.69 96.47 406.66Z" fill="#102067"/>
<path d="M62.13 412.89C71.12 416.2 80.06 419.68 86.92 426.62C87.6 427.31 88.66 426.25 87.98 425.56C80.95 418.45 71.75 414.83 62.53 411.45C61.62 411.11 61.23 412.56 62.13 412.89Z" fill="#102067"/>
<path d="M123.06 506.87C121.15 493.73 121.6 480.55 124.37 467.56C124.57 466.62 123.12 466.22 122.92 467.16C120.09 480.42 119.66 493.85 121.61 507.27C121.76 508.22 123.2 507.81 123.06 506.87Z" fill="#102067"/>
<path d="M111.21 430.99C109.66 426.25 108.41 421.44 107.62 416.51C107.13 413.47 104.31 400.96 108.52 399.41C108.91 399.26 109.14 398.91 109.04 398.49C107.07 389.75 106.38 380.83 107.25 371.91C107.7 367.23 108.52 362.5 109.85 357.99C110.3 356.46 110.74 354.23 111.81 352.96C115.84 348.15 119.57 353.28 121.51 356.17C125.62 362.3 126.93 369.98 128.51 377.06C130.5 385.95 132.42 394.86 134.26 403.79C141.5 438.86 147.56 474.16 152.51 509.62C152.64 510.57 154.09 510.17 153.96 509.22C148.38 469.24 141.38 429.47 132.89 390.01C130.97 381.09 129.5 371.77 126.48 363.13C124.88 358.54 121.68 350.84 116.34 349.47C111.08 348.13 109.17 354.7 108.16 358.46C105.9 366.92 105 375.74 105.48 384.48C105.61 386.87 105.86 389.26 106.2 391.63C106.43 393.26 107.57 396.2 107.19 397.72C106.8 399.28 105.31 400.41 105.06 402.45C103.95 411.75 106.87 422.66 109.73 431.4C110.06 432.3 111.51 431.91 111.21 430.99Z" fill="#102067"/>
<path d="M113.82 350.45C122.26 404.23 132 457.8 143.01 511.12C143.21 512.06 144.65 511.66 144.46 510.72C133.44 457.41 123.71 403.83 115.27 350.05C115.12 349.1 113.68 349.51 113.82 350.45Z" fill="#102067"/>
<path d="M107.77 397.92C114.74 406.97 120.98 416.5 126.49 426.51C126.96 427.36 128.25 426.6 127.79 425.75C122.28 415.74 116.04 406.21 109.07 397.16C108.49 396.41 107.18 397.16 107.77 397.92Z" fill="#102067"/>
<path d="M138.05 477.49C140.07 468.32 142.1 459.15 144.12 449.99C144.33 449.05 142.88 448.65 142.67 449.59C140.65 458.76 138.62 467.93 136.6 477.09C136.4 478.03 137.84 478.44 138.05 477.49Z" fill="#102067"/>
<path d="M122.97 394.11C124.88 385.71 126.79 377.3 128.7 368.9C128.91 367.96 127.47 367.56 127.25 368.5C125.34 376.9 123.43 385.31 121.52 393.71C121.31 394.66 122.76 395.06 122.97 394.11Z" fill="#102067"/>
<path d="M483.9 502.72C482.82 494.38 482.84 485.99 484.2 477.67C484.93 473.16 488.29 452.84 494.77 453.66C495.72 453.78 495.72 452.28 494.77 452.16C491.51 451.74 489.98 454.32 488.73 457.02C486.64 461.56 485.11 466.42 483.95 471.27C481.49 481.59 481.05 492.21 482.4 502.71C482.52 503.66 484.02 503.67 483.9 502.72Z" fill="#102067"/>
<path d="M495.39 454.72C497.77 438.19 502.45 421.91 509.83 406.89C513.1 400.23 519.23 388.2 527.9 389.21C537.06 390.28 533.81 405.35 533.18 411.59C529.75 445.73 521.79 479.31 509.8 511.44C509.46 512.35 510.91 512.74 511.25 511.84C522.31 482.21 529.92 451.37 533.75 419.97C534.61 412.94 535.92 405.51 535.59 398.42C535.42 394.72 534.52 390.2 531.02 388.19C521.34 382.65 512.18 398.86 508.9 405.42C501.23 420.71 496.39 437.42 493.95 454.32C493.81 455.27 495.26 455.68 495.39 454.72Z" fill="#102067"/>
<path d="M533.09 424.59C535.06 417.35 538.42 410.66 543.35 404.97C548.05 399.55 555.42 392.82 562.84 397.71C576.15 406.49 566.68 430.76 562.1 442.21C556.75 455.57 549.54 468.15 542.53 480.69C535.46 493.35 527.93 505.77 518.3 516.68C517.66 517.4 518.72 518.47 519.36 517.74C530.86 504.7 539.36 489.58 547.71 474.42C556.28 458.86 565.02 442.96 568.98 425.48C571.24 415.5 573.05 394.51 557.32 394.43C550.95 394.4 545.55 400.02 541.76 404.53C536.93 410.28 533.6 416.96 531.63 424.19C531.39 425.12 532.84 425.52 533.09 424.59Z" fill="#102067"/>
<path d="M523.39 392.4C513 431.37 502.61 470.35 492.21 509.32C491.96 510.25 493.41 510.65 493.66 509.72C504.05 470.75 514.44 431.77 524.84 392.8C525.08 391.86 523.64 391.46 523.39 392.4Z" fill="#102067"/>
<path d="M493.85 455.5C494.16 466.7 495.43 477.78 497.63 488.76C497.82 489.71 499.27 489.31 499.08 488.36C496.9 477.51 495.66 466.56 495.35 455.5C495.33 454.54 493.83 454.54 493.85 455.5Z" fill="#102067"/>
<path d="M505.51 465.38C513.75 454.99 522.26 444.82 531.05 434.89C531.69 434.17 530.63 433.1 529.99 433.83C521.2 443.76 512.69 453.93 504.45 464.32C503.85 465.07 504.91 466.14 505.51 465.38Z" fill="#102067"/>
<path d="M511.88 401.92C512.62 409.81 513.65 417.66 514.96 425.48C515.12 426.43 516.56 426.03 516.41 425.08C515.12 417.39 514.11 409.67 513.38 401.92C513.29 400.96 511.79 400.95 511.88 401.92Z" fill="#102067"/>
<path d="M561.88 400.65C545.85 434.37 529.82 468.09 513.79 501.82C513.38 502.69 514.67 503.45 515.09 502.58C531.12 468.86 547.15 435.14 563.18 401.41C563.59 400.54 562.3 399.78 561.88 400.65Z" fill="#102067"/>
<path d="M542.82 404.32C541.31 417.76 540.68 431.25 540.93 444.78C540.95 445.74 542.45 445.75 542.43 444.78C542.18 431.25 542.81 417.76 544.32 404.32C544.43 403.36 542.93 403.37 542.82 404.32Z" fill="#102067"/>
<path d="M526.17 480.96C536.65 476.37 545.94 469.88 553.86 461.63C554.53 460.93 553.47 459.87 552.8 460.57C544.96 468.73 535.77 475.13 525.41 479.67C524.53 480.05 525.29 481.34 526.17 480.96Z" fill="#102067"/>
<path d="M159.46 79.76C155.18 184.3 150.89 288.97 154.41 393.59C155.41 423.36 157.06 453.1 159.49 482.79C159.57 483.75 161.07 483.75 160.99 482.79C152.46 378.45 153.83 273.66 157.48 169.13C158.52 139.33 159.74 109.54 160.96 79.76C161 78.79 159.5 78.79 159.46 79.76Z" fill="#102067"/>
<path d="M165.2 490.75C202.1 502.99 241.67 501.12 279.99 500.22C321.31 499.25 362.6 497.54 403.86 495.09C427.29 493.7 450.71 492.06 474.11 490.2C475.07 490.12 475.07 488.62 474.11 488.7C433.24 491.95 392.32 494.5 351.36 496.31C311.24 498.08 270.83 500.14 230.67 499.17C208.63 498.64 186.6 496.27 165.6 489.31C164.68 489 164.29 490.44 165.2 490.75Z" fill="#102067"/>
<path d="M160.23 79.5C179.21 73.58 199.22 74.36 218.86 74.53C239.23 74.7 259.6 74.89 279.97 75.25C320.68 75.98 361.39 77.41 401.97 80.77C425.45 82.72 448.86 85.33 472.16 88.79C473.1 88.93 473.51 87.49 472.56 87.34C390.55 75.17 307.53 73.78 224.77 73.07C203.12 72.89 180.77 71.51 159.83 78.05C158.91 78.34 159.31 79.79 160.23 79.5Z" fill="#102067"/>
<path d="M471.09 88.23C477.58 88.57 478.81 96.65 478.93 101.77C479.07 108.12 478.68 114.52 478.55 120.87C478.27 134.13 477.99 147.39 477.71 160.65C477.15 187.17 476.59 213.69 476.03 240.21C474.91 293.25 473.78 346.29 472.66 399.32C472.03 428.93 470.81 458.61 472.09 488.21C472.13 489.17 473.63 489.18 473.59 488.21C472.38 460.26 473.46 432.25 474.06 404.29C474.66 376.11 475.25 347.94 475.85 319.76C477.03 264.07 478.21 208.38 479.39 152.69C479.73 136.78 480.11 120.87 480.4 104.96C480.52 98.3 479.88 87.2 471.1 86.73C470.12 86.68 470.13 88.18 471.09 88.23Z" fill="#102067"/>
<path d="M285.46 382.76C289.24 394.93 293.02 407.1 296.81 419.27C295.48 423.7 293.96 429.75 293.01 437.04C291.53 448.34 292.14 457 292.64 463.54C293.26 471.75 294.73 482.7 298.3 495.37C347.49 492.91 396.68 490.46 445.86 488C441.7 475.94 438.01 465.48 435 457.03C430.36 444.03 427.15 435.27 422.12 424.23C422.12 424.23 419.03 417.45 410.11 403.2C408.06 399.92 404.81 394.89 398.67 391.1C397.03 390.09 395.58 389.41 394.57 388.98C392.68 383.79 390.4 378.24 387.63 372.45C383.33 363.46 378.7 355.66 374.26 349.06C344.67 360.3 315.07 371.53 285.46 382.76Z" fill="white"/>
<path d="M382.22 362.35C386.21 371.11 390.2 379.87 394.19 388.62C394.59 389.5 395.88 388.74 395.49 387.86C391.5 379.1 387.51 370.34 383.52 361.59C383.12 360.72 381.82 361.48 382.22 362.35Z" fill="#102067"/>
<path d="M394.2 389.63C402.94 393.38 408.5 401.64 413.35 409.47C418.29 417.46 422.32 425.98 425.88 434.66C433.06 452.2 438.88 470.33 445.15 488.2C445.47 489.1 446.92 488.72 446.6 487.8C439.92 468.76 433.81 449.37 425.89 430.8C422.07 421.84 417.69 413.09 412.26 404.99C407.74 398.24 402.63 391.62 394.97 388.33C394.08 387.96 393.32 389.25 394.2 389.63Z" fill="#102067"/>
<path d="M319.29 435.72C325.76 436.99 332.03 438.89 338.1 441.46C338.98 441.83 339.74 440.54 338.86 440.16C332.66 437.53 326.3 435.56 319.69 434.27C318.74 434.09 318.34 435.53 319.29 435.72Z" fill="#102067"/>
<path d="M337.18 440.85C346.27 456.73 354.69 472.96 362.43 489.54C362.84 490.41 364.13 489.65 363.73 488.78C355.99 472.2 347.57 455.97 338.48 440.09C337.99 439.26 336.7 440.01 337.18 440.85Z" fill="#102067"/>
<path d="M288.3 391.82C290.9 401.04 293.49 410.26 296.09 419.47C296.35 420.4 297.8 420 297.54 419.07C294.94 409.85 292.35 400.63 289.75 391.42C289.48 390.49 288.03 390.88 288.3 391.82Z" fill="#102067"/>
<path d="M295.38 417.85C289.8 443.02 290.37 469.02 297.08 493.91C297.33 494.84 298.78 494.45 298.53 493.51C291.89 468.87 291.3 443.16 296.83 418.24C297.04 417.3 295.59 416.9 295.38 417.85Z" fill="#102067"/>
<path d="M357.29 380.5C362.7 391.01 369.42 403.88 379.07 411.14C389.46 418.97 399.02 413.49 406.13 404.46C406.72 403.71 405.67 402.64 405.07 403.4C401.58 407.84 397.2 412.77 391.29 413.48C384.86 414.25 379.39 410.11 375.37 405.52C368.64 397.85 363.25 388.77 358.6 379.73C358.14 378.88 356.84 379.64 357.29 380.5Z" fill="#102067"/>
<path d="M365.84 375.28C369.81 382.6 373.97 390.19 379.08 396.8C383.29 402.24 388.33 402.43 394.8 401.14C395.75 400.95 395.35 399.51 394.4 399.69C390.17 400.53 385.67 401.09 382.1 398.05C379.75 396.05 378.04 392.7 376.36 390.11C373.07 385.04 370.02 379.83 367.13 374.52C366.67 373.68 365.38 374.43 365.84 375.28Z" fill="#102067"/>
<path d="M313.61 393.63C316.27 402.78 318.83 411.96 321.6 421.08C323.15 426.2 325.97 426.97 331.01 425.34C331.92 425.04 331.53 423.6 330.61 423.89C329.56 424.23 328.06 424.86 326.96 424.71C323.57 424.26 323.18 421.14 322.49 418.78C321.66 415.94 320.84 413.1 320.01 410.26C318.36 404.58 316.71 398.9 315.05 393.22C314.78 392.31 313.34 392.7 313.61 393.63Z" fill="#102067"/>
<path d="M321.76 392.18C323.88 400 326.09 407.78 328.41 415.54C330.38 422.1 332.08 428.9 335.38 434.94C335.84 435.79 337.14 435.03 336.68 434.18C333.16 427.73 331.39 420.29 329.3 413.27C327.17 406.13 325.15 398.96 323.2 391.77C322.95 390.85 321.5 391.24 321.76 392.18Z" fill="#102067"/>
<path d="M295.27 393.85C298.14 400.01 304.32 410.21 299.64 416.68C299.07 417.46 300.37 418.21 300.94 417.44C306.11 410.28 299.74 399.91 296.57 393.1C296.15 392.21 294.86 392.98 295.27 393.85Z" fill="#102067"/>
<path d="M302.74 393.7C304.29 400.47 305.83 407.24 307.38 414C307.75 415.61 308.14 417.22 308.48 418.83C309.15 421.94 309.63 423.65 308.19 426.69C306.16 430.99 302.6 433.19 298.21 434.8C297.31 435.13 297.7 436.58 298.61 436.25C304.2 434.21 311.3 429.96 310.86 423.17C310.57 418.7 308.95 414.09 307.95 409.73C306.7 404.25 305.45 398.77 304.19 393.29C303.98 392.36 302.53 392.76 302.74 393.7Z" fill="#102067"/>
<path d="M268.09 232.06C264.45 233.06 261.23 235.67 254.77 240.9C248.06 246.34 244.17 250.95 238.88 256.25C238.88 256.25 229.3 266.42 218.78 276.72C202.95 292.23 197.54 295.4 193.88 297.24C187.4 300.5 181.56 302.02 177.69 302.8C176.96 300.19 175.79 296.35 174.06 291.82C170.39 282.2 166.53 275.66 160.18 265.03C150.49 248.82 149.77 247.83 145.06 239.87C133.06 219.62 134.55 220.68 129.7 213.66C123.02 203.99 116.7 196.93 107.69 186.88C100.37 178.71 95.84 174.3 94.32 172.84C88.2 166.94 82.67 162.29 78.4 158.89C77.86 159.79 77.09 161.42 77.27 163.4C77.44 165.33 78.44 166.67 79.12 167.56C82.69 172.25 84.48 174.6 85.75 175.93C87.74 178.03 90.47 181.15 93.44 185.41C92.42 186.74 91.4 188.11 90.37 189.52C88.61 191.95 86.96 194.35 85.43 196.69C85.02 197.75 84.36 199.33 83.43 201.21C81.45 205.22 80.57 205.82 80.29 207.92C79.88 210.93 81.2 213.37 81.61 214.12C82.37 215.48 83.41 217.35 85.38 217.99C87.5 218.68 88.43 217.21 92.56 217.07C94.38 217.01 95.5 216.97 96.77 217.49C99.45 218.59 100.66 221.33 102.07 224.66C103.73 228.57 103.26 229.53 104.88 233.01C106.18 235.78 107.64 237.65 108.47 238.7C112.58 243.88 117.74 246.68 120.99 248.09C122.94 254.54 125.85 263.96 129.59 275.34C134.34 289.78 136.78 297.18 140.39 305.8C143.49 313.23 147.48 322.66 154.49 334.09C158.39 340.45 162.07 345.54 164.85 349.16C167.21 349.53 170.62 349.89 174.71 349.65C179.84 349.35 183.54 348.27 187.7 347.02C195.77 344.6 202.64 342.45 208.15 340.69C212.06 354.04 215.97 367.39 219.89 380.74C221.86 380.49 224.59 379.97 227.67 378.79C233.29 376.64 236.85 373.52 239.3 371.34C244.62 366.6 247.56 361.9 250.41 357.26C251.1 356.14 253.03 352.94 256.59 345.3C258.23 341.78 261.46 334.91 264.85 325.52C267.17 319.1 267.95 316 270.87 309.06C273.61 302.57 274.74 300.98 275.6 299.9C278.78 295.96 281.3 295.32 284.14 291.09C286.11 288.16 286.84 285.56 287.37 283.81C293.48 263.5 302.15 256.01 298.74 246.33C295.01 235.74 279.13 229.03 268.09 232.06Z" fill="white"/>
<path d="M267.89 231.33C261.22 233.69 256.04 238.63 250.93 243.36C244.57 249.25 238.54 255.48 232.52 261.72C220.37 274.29 208.14 286.86 193.51 296.58C192.71 297.11 193.46 298.41 194.27 297.88C207.6 289.03 218.99 277.85 230.08 266.41C235.73 260.59 241.32 254.71 247.14 249.05C253.35 243.01 259.98 235.73 268.29 232.79C269.19 232.46 268.81 231.01 267.89 231.33Z" fill="#102067"/>
<path d="M193.07 297.1C202.65 324.76 211.35 352.72 219.18 380.93C219.44 381.86 220.89 381.46 220.63 380.53C212.81 352.32 204.1 324.37 194.52 296.7C194.21 295.79 192.76 296.18 193.07 297.1Z" fill="#102067"/>
<path d="M221.07 381.43C241.7 377.56 252.1 357.66 259.74 340.12C263.9 330.55 267.25 320.71 270.94 310.97C272.97 305.6 275.46 300.4 279.64 296.36C282.57 293.53 285.76 291.5 286.71 287.31C286.92 286.37 285.48 285.97 285.26 286.91C284.15 291.85 279.01 294.34 276.03 298.1C273.89 300.79 272.29 303.84 270.93 306.99C267.05 315.98 264.25 325.43 260.51 334.49C252.84 353.09 242.69 375.86 220.67 379.99C219.72 380.16 220.12 381.61 221.07 381.43Z" fill="#102067"/>
<path d="M199.64 293.55C212.13 320.81 220.79 349.62 225.43 379.24C225.58 380.19 227.02 379.79 226.88 378.84C222.21 349.08 213.48 320.18 200.93 292.79C200.54 291.92 199.24 292.68 199.64 293.55Z" fill="#102067"/>
<path d="M192.72 296.97C187.81 299.19 182.74 300.87 177.49 302.06C176.55 302.27 176.95 303.72 177.89 303.51C183.27 302.29 188.45 300.54 193.48 298.27C194.36 297.87 193.6 296.57 192.72 296.97Z" fill="#102067"/>
<path d="M181 310.93C177.5 295.37 170.42 281.13 162.46 267.42C153.7 252.3 144.48 237.44 135.46 222.48C134.96 221.65 133.66 222.41 134.16 223.24C142.87 237.69 151.73 252.07 160.26 266.63C168.5 280.72 175.94 295.31 179.55 311.34C179.77 312.27 181.21 311.87 181 310.93Z" fill="#102067"/>
<path d="M134.03 233.46C124.64 235.34 124.12 223.05 116.98 220.55C113.97 219.5 110.68 220.94 107.66 219.92C103.01 218.4 103.43 215.86 108.9 212.28C109.49 212.4 110.08 212.53 110.66 212.65C112.9 212.67 115.52 213.67 117.72 214.14C118.66 214.34 119.06 212.89 118.12 212.69C114.35 211.9 105.78 208.23 102.45 211.77C99.93 214.46 102.37 218.37 104.81 220.13C106.46 221.31 108.34 221.7 110.33 221.8C113.46 221.96 116.07 221.42 118.82 223.5C120.81 225.01 121.88 227.38 123.33 229.35C126.13 233.15 129.53 235.89 134.44 234.9C135.37 234.71 134.97 233.27 134.03 233.46Z" fill="#102067"/>
<path d="M135.94 223.23C129.58 210.26 120.31 199.24 110.5 188.74C104.96 182.81 99.32 176.96 93.71 171.08C89.14 166.28 84.76 161.31 78.79 158.22C78.52 158.08 78.09 158.07 77.88 158.34C73.94 163.41 79.19 169.01 82.39 172.96C89.23 181.39 96.07 189.83 102.92 198.26C103.53 199.01 104.58 197.94 103.98 197.2C96.94 188.52 89.86 179.87 82.85 171.16C81.43 169.39 77.11 164.82 77.87 162.15C78.95 158.37 82.78 162.43 84.32 163.76C88.28 167.18 91.76 171.21 95.36 174.99C109.78 190.12 125.32 204.97 134.63 223.98C135.07 224.85 136.37 224.09 135.94 223.23Z" fill="#102067"/>
<path d="M82.07 204.05C75.43 210.12 81.06 220.69 89.77 218.8C90.71 218.6 90.31 217.15 89.37 217.35C82.07 218.93 77.67 210.09 83.13 205.11C83.85 204.45 82.79 203.39 82.07 204.05Z" fill="#102067"/>
<path d="M84.79 196.31C81.82 200.56 81.6 206.45 85.5 210.22C88.3 212.93 93.72 214.44 96.34 210.73C96.9 209.94 95.6 209.19 95.04 209.97C92.41 213.7 86.67 210.06 85.09 207.27C83.21 203.96 84 200.05 86.08 197.06C86.64 196.27 85.34 195.52 84.79 196.31Z" fill="#102067"/>
<path d="M90.93 188.23C86.53 191.18 83.97 199.39 87.89 203.57C90.94 206.83 97.83 210.85 100.89 205.55C101.37 204.71 100.08 203.96 99.59 204.79C97.18 208.97 91.13 205.03 88.95 202.51C86.02 199.12 88.11 191.92 91.69 189.52C92.48 188.99 91.73 187.69 90.93 188.23Z" fill="#102067"/>
<path d="M101.15 205C102.56 203.69 102.01 201.75 100.76 200.49C99.59 199.3 97.48 198.83 97.05 196.96C96.79 195.82 98.62 193.39 98.86 192.14C99.04 191.2 97.6 190.79 97.41 191.74C97 193.87 94.9 195.81 95.78 198.09C96.42 199.76 101.92 202.24 100.09 203.93C99.38 204.59 100.44 205.65 101.15 205Z" fill="#102067"/>
<path d="M90.32 218.94C100.16 212.44 102.72 231.86 106.65 237.48C108.38 239.96 110.47 242.19 112.84 244.07C115.31 246.02 118.57 247.08 120.81 249.25C121.5 249.92 122.57 248.86 121.87 248.19C118.71 245.13 114.35 243.77 111.15 240.54C106.89 236.24 104.85 231.29 103.15 225.6C101.28 219.35 96.52 213.05 89.56 217.64C88.76 218.18 89.51 219.48 90.32 218.94Z" fill="#102067"/>
<path d="M120.29 248.28C125.4 261.94 128.68 276.19 133.48 289.96C137.88 302.56 143.25 314.83 149.51 326.62C152.63 332.48 155.96 338.24 159.53 343.84C161.9 347.56 164.07 350.68 168.8 350.97C174.24 351.31 180.37 349.5 185.61 348.29C192.64 346.66 199.52 344.52 206.27 341.98C207.17 341.64 206.78 340.19 205.87 340.53C200.25 342.65 194.53 344.5 188.71 345.98C182.99 347.44 176.13 349.57 170.21 349.45C165.34 349.35 163.21 346.82 160.83 343.07C159.21 340.52 157.64 337.94 156.11 335.34C153.05 330.13 150.18 324.82 147.5 319.41C142.02 308.38 137.33 296.96 133.48 285.27C129.39 272.86 126.33 260.13 121.74 247.88C121.4 246.98 119.95 247.37 120.29 248.28Z" fill="#102067"/>
<path d="M207.92 287.61C207.56 294.45 207.2 301.28 206.85 308.12C206.8 309.08 208.3 309.08 208.35 308.12C208.71 301.28 209.07 294.45 209.42 287.61C209.48 286.65 207.97 286.65 207.92 287.61Z" fill="#102067"/>
<path d="M216.9 278.24C216.31 294.8 215.06 311.31 213.16 327.76C213.05 328.72 214.55 328.71 214.66 327.76C216.56 311.3 217.8 294.79 218.4 278.24C218.44 277.27 216.94 277.27 216.9 278.24Z" fill="#102067"/>
<path d="M230.14 265.44C227.74 292.85 224.09 320.13 219.19 347.21C219.02 348.15 220.46 348.56 220.64 347.61C225.55 320.4 229.22 292.99 231.64 265.44C231.72 264.48 230.22 264.48 230.14 265.44Z" fill="#102067"/>
<path d="M244.81 250.78C241.37 270.77 237.94 290.77 234.5 310.76C231.24 329.7 229.16 349.43 223.17 367.75C222.87 368.67 224.32 369.06 224.62 368.15C230.61 349.83 232.69 330.1 235.95 311.16C239.39 291.17 242.82 271.17 246.26 251.18C246.42 250.24 244.97 249.83 244.81 250.78Z" fill="#102067"/>
<path d="M256.58 238.88C246.99 283.74 239.88 329.09 235.26 374.73C235.16 375.69 236.66 375.68 236.76 374.73C241.36 329.22 248.46 284.01 258.02 239.28C258.22 238.33 256.78 237.93 256.58 238.88Z" fill="#102067"/>
<path d="M263.35 234.67C263.38 270.35 261.26 305.99 257 341.41C256.88 342.37 258.39 342.36 258.5 341.41C262.76 305.99 264.88 270.35 264.85 234.67C264.84 233.7 263.34 233.7 263.35 234.67Z" fill="#102067"/>
<path d="M272.25 235.52C273.29 259.6 272.71 283.7 270.52 307.71C270.43 308.67 271.93 308.66 272.02 307.71C274.22 283.7 274.79 259.61 273.75 235.52C273.7 234.55 272.2 234.55 272.25 235.52Z" fill="#102067"/>
<path d="M269.29 233.04C266.99 237.04 264.11 242.26 261.04 248.51C259.77 251.08 256.3 258.24 252.32 268.21C248.5 277.78 246.58 282.67 245.95 287.72C245.73 289.49 245.06 295.65 246.46 303.5C246.89 305.9 248.36 313.17 253.04 321.43C256.05 326.73 259.37 330.67 261.96 333.35C263.17 340.13 264.55 347.11 266.14 354.26C268.93 366.85 272.07 378.73 275.39 389.84C283.14 391.5 294.32 393.09 307.73 392.21C310.76 392.01 321.28 391.2 334.52 387.29C351.16 382.37 362.62 375.35 368.7 371.57C376.4 366.78 386.41 359.59 396.67 349.19C394.77 344.75 392.6 340.12 390.11 335.35C385.12 325.79 379.81 317.48 374.66 310.37C374.79 306.73 374.94 301.58 375.05 295.4C375.23 285.46 375.06 285.57 375.05 264.51C375.04 256.46 375.07 252.95 374.43 247.53C373.29 237.86 371.46 234.03 370.27 231.93C368.93 229.56 366.29 225.06 361.07 222.46C357.66 220.76 354.59 220.59 352.9 220.5C327.17 219.06 330.43 218.46 324.03 218.77C308.97 219.52 297.45 222.53 292.24 224.04C282.87 226.76 275.16 230.1 269.29 233.04Z" fill="white"/>
<path d="M260.4 248.13C253.4 263.96 243.43 280.4 245 298.32C246.31 313.26 253.8 327.03 264.49 337.35C265.18 338.02 266.25 336.96 265.55 336.29C254.82 325.94 247.24 311.9 246.39 296.83C245.42 279.77 255 264.01 261.7 248.89C262.08 248.01 260.79 247.24 260.4 248.13Z" fill="#102067"/>
<path d="M261.24 333.55C264.66 352.43 269.05 371.11 274.4 389.54C274.67 390.47 276.12 390.07 275.85 389.14C270.5 370.71 266.12 352.03 262.69 333.15C262.52 332.2 261.07 332.6 261.24 333.55Z" fill="#102067"/>
<path d="M275.2 390.56C320.39 400.42 365.16 381.25 397.21 349.72C397.9 349.04 396.84 347.98 396.15 348.66C364.49 379.8 320.26 398.86 275.6 389.12C274.66 388.91 274.26 390.36 275.2 390.56Z" fill="#102067"/>
<path d="M269.67 233.68C297.36 219.93 329.02 215.98 359.24 222.48C360.18 222.68 360.58 221.24 359.64 221.03C329.01 214.44 296.98 218.45 268.91 232.38C268.05 232.82 268.81 234.11 269.67 233.68Z" fill="#102067"/>
<path d="M358.65 222.21C374.95 228.7 374.04 249.45 374.31 263.96C374.59 279.43 374.45 294.91 373.93 310.37C373.9 311.34 375.4 311.33 375.43 310.37C376.06 291.72 376.24 273.02 375.58 254.37C375.12 241.35 372.69 226.2 359.05 220.77C358.15 220.4 357.76 221.85 358.65 222.21Z" fill="#102067"/>
<path d="M373.7 308.85C381.74 321.68 389.22 334.84 396.13 348.31C396.57 349.17 397.87 348.41 397.43 347.55C390.52 334.08 383.04 320.92 375 308.09C374.48 307.28 373.18 308.03 373.7 308.85Z" fill="#102067"/>
<path d="M273.66 383.59C317.11 390.27 362.39 375.45 393.43 344.3C394.11 343.62 393.05 342.55 392.37 343.24C361.74 373.98 316.96 388.74 274.06 382.15C273.11 382 272.71 383.45 273.66 383.59Z" fill="#102067"/>
<path d="M270.66 373.64C274.92 377.05 279.08 380.59 283.12 384.26C283.83 384.91 284.9 383.85 284.18 383.2C280.14 379.53 275.98 375.99 271.72 372.58C270.97 371.98 269.91 373.04 270.66 373.64Z" fill="#102067"/>
<path d="M267.56 360.68C276.55 368.58 285.55 376.48 294.54 384.39C295.26 385.02 296.33 383.97 295.6 383.33C286.61 375.43 277.61 367.53 268.62 359.62C267.9 358.98 266.83 360.04 267.56 360.68Z" fill="#102067"/>
<path d="M264.3 345.29C280.51 357.31 296.31 369.87 311.69 382.95C312.42 383.57 313.49 382.52 312.75 381.89C297.28 368.73 281.37 356.1 265.06 344C264.28 343.42 263.53 344.72 264.3 345.29Z" fill="#102067"/>
<path d="M263.73 335.32C284.41 349.98 304.83 364.99 324.98 380.36C325.75 380.95 326.5 379.64 325.74 379.06C305.59 363.69 285.17 348.68 264.49 334.02C263.69 333.46 262.94 334.76 263.73 335.32Z" fill="#102067"/>
<path d="M247.9 310C276.82 334.63 310.57 352.73 339.57 377.24C340.3 377.86 341.37 376.8 340.63 376.18C311.63 351.66 277.87 333.57 248.96 308.94C248.23 308.32 247.17 309.38 247.9 310Z" fill="#102067"/>
<path d="M246.65 291.46C262.65 305.82 279.88 318.23 297.73 330.17C316.89 342.98 334.96 357.27 352.97 371.64C353.72 372.24 354.79 371.18 354.03 370.58C336.87 356.89 319.69 343.2 301.5 330.9C282.81 318.25 264.55 305.51 247.72 290.4C246.99 289.76 245.93 290.82 246.65 291.46Z" fill="#102067"/>
<path d="M248.33 278.57C266.71 291.75 285.09 304.93 303.47 318.11C304.26 318.67 305.01 317.37 304.23 316.81C285.85 303.63 267.47 290.45 249.09 277.27C248.3 276.71 247.55 278.01 248.33 278.57Z" fill="#102067"/>
<path d="M303.47 318.11C327.36 330.86 350.54 344.86 372.93 360.08C373.73 360.62 374.48 359.32 373.69 358.78C351.3 343.56 328.11 329.56 304.23 316.81C303.37 316.36 302.61 317.65 303.47 318.11Z" fill="#102067"/>
<path d="M253.1 267.37C296.84 294.47 339.99 322.5 382.53 351.46C383.33 352 384.08 350.71 383.29 350.16C340.76 321.2 297.6 293.17 253.86 266.07C253.04 265.56 252.28 266.86 253.1 267.37Z" fill="#102067"/>
<path d="M258.85 256.84C302.26 285.38 346.31 312.93 390.97 339.47C391.8 339.96 392.56 338.67 391.73 338.17C347.07 311.63 303.02 284.08 259.61 255.54C258.8 255.01 258.05 256.31 258.85 256.84Z" fill="#102067"/>
<path d="M262.34 248.12C298.42 270.28 335.47 290.8 373.41 309.61C374.27 310.04 375.03 308.74 374.17 308.31C336.24 289.5 299.18 268.98 263.1 246.82C262.27 246.32 261.52 247.62 262.34 248.12Z" fill="#102067"/>
<path d="M265.91 240.1C275.44 243.47 284.25 248.7 293.15 253.43C302.16 258.22 311.17 263 320.18 267.79C337.91 277.21 355.64 286.63 373.37 296.04C374.22 296.49 374.98 295.2 374.13 294.74C355.82 285.01 337.51 275.29 319.2 265.56C310.19 260.77 301.18 255.99 292.17 251.2C283.71 246.71 275.37 241.84 266.31 238.64C265.39 238.33 265 239.78 265.91 240.1Z" fill="#102067"/>
<path d="M274.49 231.17C309.31 244.09 342.57 260.8 373.73 281.01C374.54 281.54 375.29 280.24 374.49 279.71C343.23 259.43 309.83 242.68 274.9 229.72C273.98 229.38 273.59 230.83 274.49 231.17Z" fill="#102067"/>
<path d="M297.03 223.08C322.86 235.1 348.44 247.64 373.76 260.7C374.62 261.14 375.38 259.85 374.52 259.4C349.2 246.34 323.62 233.8 297.79 221.78C296.92 221.38 296.15 222.68 297.03 223.08Z" fill="#102067"/>
<path d="M324.04 220.48C341.3 227.53 357.82 236.14 373.5 246.23C374.31 246.75 375.07 245.46 374.26 244.93C358.47 234.77 341.82 226.13 324.44 219.03C323.55 218.67 323.16 220.12 324.04 220.48Z" fill="#102067"/>
<path d="M250.48 173.05C248.38 171.14 245.42 168 242.97 163.45C241.9 161.47 238.65 154.99 238.62 146C238.62 144.61 238.68 138.94 241.22 132.13C241.87 130.4 244.29 124.26 249.98 118.06C257.37 110.01 265.68 106.88 269.22 105.59C277.15 102.7 284.26 102.32 289.08 102.51C291.73 101.61 295.19 100.77 299.27 100.6C308.83 100.2 316.16 103.71 319.68 105.73C326.44 105.82 331.74 107.07 335.21 108.15C339.04 109.34 342.29 110.38 345.57 113.09C349.41 116.27 351.17 120.01 352.19 122.24C358.76 136.62 362.04 147.96 362.04 147.96C364.69 157.12 368.66 165.85 371.9 174.83C376.39 187.29 383.28 205.8 393.58 231.64C391.84 233.52 389.37 236.04 386.26 238.86C383.28 241.55 378.74 245.62 372.12 249.78C370.81 250.6 366.24 253.43 359.66 256.31C352.45 259.47 344.4 262.9 333.8 263.2C330.74 263.29 328.21 263.09 326.54 262.9C326.38 260 326.25 255.9 326.46 251.01C326.75 244.32 327.52 239.39 328.48 233.35C329.29 228.27 330.51 221.62 332.34 213.85C328.67 219.91 326.16 225.07 324.59 228.57C322.44 233.36 321.17 236.92 315.29 253.99C314.02 257.68 312.51 262.07 311.19 265.91C311.12 261.43 311.22 256.7 311.56 251.74C312.48 238.13 314.93 226.13 317.81 216.05C314.13 220.04 310.45 224.02 306.77 228.01C306.94 233.92 307.12 239.83 307.29 245.74C305.39 244.17 303.5 242.6 301.6 241.03C301.98 244.29 302.12 248.17 301.65 252.48C301.48 254.04 301.25 255.52 300.97 256.9C296.02 260.32 289.55 264.13 281.59 267.35C270.77 271.72 260.99 273.47 253.73 274.18C252.89 271.72 252.1 269.01 251.45 266.07C249.86 258.9 249.53 252.43 249.7 247.15C248.34 250.77 246.97 254.39 245.61 258C244.88 252.47 245.17 248.09 245.59 245.08C246.1 241.37 246.83 239.46 248.09 232.23C248.66 228.95 248.6 227.93 249.18 225.23C249.94 221.69 250.76 219.48 251.77 216.4C251.77 216.4 252.63 213.8 255.27 204.63C256.7 199.62 256.82 190.62 250.48 173.05Z" fill="#102067"/>
<path d="M285.04 116.78C278.72 120.54 273.9 124.28 270.57 127.12C264.32 132.45 259.64 136.52 256.09 143.49C253.84 147.91 252.94 151.72 252.32 154.44C250.92 160.58 250.98 165.19 251.11 171.81C251.25 178.89 251.42 185.32 253.68 193.41C254.87 197.69 255.84 201.15 258.36 205.26C263.61 213.85 271.06 217.8 272.59 218.58C283.6 224.21 294.01 222.15 296.8 221.55C298.91 221.1 300.63 220.53 301.84 220.08C302.95 222.52 304.27 225.13 305.83 227.85C307.64 231 309.5 233.79 311.28 236.24C312.32 234.32 313.83 231.3 315.23 227.42C316.76 223.16 317.13 220.71 318.44 215.96C319.28 212.92 319.82 211.43 322.53 203.69C324.08 199.25 326.45 192.47 329.63 183.29C331.05 183.04 333.08 182.59 335.42 181.69C338.25 180.6 340.55 179.71 342.55 177.49C344.48 175.36 345.14 173.1 345.6 171.53C346.17 169.6 346.98 166.85 346.15 163.71C344.91 159.04 340.88 156.66 339.82 156.08C340.39 153.85 341.01 150.84 341.31 147.24C341.76 141.81 341.27 137.69 340.92 134.95C340.47 131.35 339.68 125.44 336.7 118.37C334.85 113.98 332.71 110.49 330.9 107.91C333.74 108.62 337.65 109.12 342.09 108.3C345.1 107.75 348.68 107.09 351.39 104.11C353.11 102.22 353.73 100.22 354.3 98.36C355.3 95.12 354.61 94.59 355.19 88C355.52 84.27 355.93 82.32 355.39 79.06C354.89 76.06 354.14 75.24 353.47 74.85C351.87 73.92 349.73 74.9 348.18 75.6C347.28 76.01 345.73 76.83 342.35 80.1C340.58 81.81 338.67 83.68 336.47 86.61C334.75 88.9 334.52 89.63 332.48 92.7C331.13 94.72 329.4 97.16 327.23 99.84C326.42 99.83 325.61 99.82 324.8 99.81C322.02 94.64 320.18 90.27 319.01 87.24C317.52 83.37 315.14 76.5 310.35 69.13C309.01 67.06 307.61 65.16 306.07 65.32C303.97 65.54 302.82 69.55 302.25 71.51C301.24 75 301.35 77.96 301.52 81.59C301.64 84.13 301.91 86.56 302.31 88.96C302.81 92 303.71 96.12 305.4 100.89C307.16 101.09 309.57 101.48 312.33 102.36C314.39 103.01 316.96 103.83 319.68 105.72C321.11 106.71 322.77 108.14 324.93 110.97C329.86 117.43 332.11 124.26 333.11 127.97C334.16 131.85 334.51 135.1 335.21 141.61C335.86 147.7 336.14 152.77 336.26 156.3C335.25 156.29 333.64 156.4 331.85 157.14C328.98 158.33 327.42 160.43 326.81 161.34C324.57 161.26 321.29 160.91 317.58 159.66C308.75 156.68 303.67 150.64 299.53 145.6C291.33 135.58 287.19 124.9 285.04 116.78Z" fill="white"/>
<path d="M254.46 143.96C249.66 157.2 249.65 171.31 251.49 185.12C253.07 196.96 256.74 207.69 266.36 215.35C283.58 229.08 308.66 224.57 320.8 206.46C321.34 205.66 320.04 204.9 319.5 205.7C306.91 224.48 280.2 227.49 264.13 211.36C255.63 202.82 253.46 191.29 252.36 179.73C251.22 167.76 251.77 155.74 255.89 144.36C256.23 143.45 254.78 143.06 254.46 143.96Z" fill="#102067"/>
<path d="M301.59 220.75C303.89 225.83 306.43 230.78 309.23 235.6C309.71 236.43 311.01 235.68 310.53 234.84C307.73 230.02 305.18 225.07 302.89 219.99C302.48 219.12 301.19 219.88 301.59 220.75Z" fill="#102067"/>
<path d="M327.86 161.69C334.26 153.56 346.02 155.72 345.58 167.2C345.25 175.88 338.33 182.74 329.63 182.53C328.66 182.51 328.66 184.01 329.63 184.03C340.36 184.28 348.43 174.58 346.95 163.99C345.37 152.72 332.76 153.06 326.8 160.63C326.21 161.38 327.26 162.45 327.86 161.69Z" fill="#102067"/>
<path d="M319.3 106.33C333.56 118.42 334.8 137.66 335.48 155.06C335.52 156.02 337.02 156.03 336.98 155.06C336.29 137.29 334.92 117.61 320.36 105.27C319.63 104.65 318.57 105.71 319.3 106.33Z" fill="#102067"/>
<path d="M320.92 106.38C332.19 102.79 336.77 119.23 338.74 127.22C341.03 136.51 341.21 146.04 339.53 155.43C339.36 156.37 340.81 156.78 340.98 155.83C343.12 143.87 342.3 131.59 338.16 120.13C335.33 112.28 330.69 101.69 320.52 104.93C319.6 105.23 320 106.68 320.92 106.38Z" fill="#102067"/>
<path d="M251.01 172.52C238.07 160.58 236.12 141.28 244.84 126.27C253.93 110.62 271.46 103.04 289.08 103.24C290.05 103.25 290.05 101.75 289.08 101.74C270.43 101.53 251.86 109.93 242.81 126.83C234.57 142.22 236.96 161.58 249.96 173.57C250.65 174.23 251.72 173.17 251.01 172.52Z" fill="#102067"/>
<path d="M283.23 112.39C287.55 132.62 303.11 161.86 327.2 161.56C328.16 161.55 328.17 160.05 327.2 160.06C303.85 160.36 288.85 131.54 284.68 111.99C284.48 111.05 283.03 111.45 283.23 112.39Z" fill="#102067"/>
<path d="M289.68 103.08C299.73 100.58 310.57 99.77 319.08 106.77C319.82 107.38 320.89 106.32 320.14 105.71C311.22 98.38 299.9 99 289.28 101.64C288.35 101.87 288.74 103.31 289.68 103.08Z" fill="#102067"/>
<path d="M331.8 109.11C350.68 107.18 355.96 133.56 360.83 146.85C366.72 162.91 372.61 178.97 378.5 195.04C378.83 195.94 380.28 195.55 379.95 194.64C372.93 175.49 365.9 156.34 358.88 137.19C354.35 124.84 348.5 105.92 331.8 107.62C330.85 107.7 330.84 109.21 331.8 109.11Z" fill="#102067"/>
<path d="M328.64 185.13C318.76 210.94 308.89 237.56 310.43 265.65C310.48 266.61 311.98 266.62 311.93 265.65C310.39 237.69 320.26 211.21 330.09 185.53C330.43 184.62 328.98 184.23 328.64 185.13Z" fill="#102067"/>
<path d="M312.91 266.67C317.01 247.75 323.89 229.7 333.44 212.87C332.98 212.68 332.53 212.48 332.07 212.29C331.94 212.72 331.81 213.16 331.67 213.59C331.39 214.52 332.84 214.91 333.12 213.99C333.25 213.56 333.38 213.12 333.52 212.69C333.77 211.88 332.57 211.37 332.15 212.11C322.54 229.05 315.59 247.24 311.47 266.27C311.26 267.21 312.7 267.61 312.91 266.67Z" fill="#102067"/>
<path d="M332.24 212.05C327.54 228.62 325.37 245.65 325.79 262.86C325.81 263.82 327.31 263.83 327.29 262.86C326.88 245.78 329.02 228.88 333.69 212.45C333.95 211.52 332.5 211.12 332.24 212.05Z" fill="#102067"/>
<path d="M326.95 264.42C350.02 263.43 371.88 253.97 388.38 237.81C389.07 237.13 388.01 236.07 387.32 236.75C371.11 252.62 349.62 261.95 326.95 262.92C325.98 262.96 325.98 264.46 326.95 264.42Z" fill="#102067"/>
<path d="M378.42 195.2C381.4 202.7 384.37 210.2 387.35 217.7C388.78 221.3 390.21 224.9 391.64 228.5C392.66 231.06 392.82 231.37 390.91 233.55C389.68 234.96 388.28 236.26 386.98 237.6C386.31 238.29 387.37 239.35 388.04 238.66C389.65 237 393.81 234.19 394.29 231.82C394.77 229.47 391.81 224.9 390.94 222.7C387.25 213.4 383.56 204.1 379.87 194.81C379.52 193.91 378.07 194.3 378.42 195.2Z" fill="#102067"/>
<path d="M254.96 200.14C253.99 210.6 249.39 220.2 247.08 230.37C244.93 239.87 244.19 249.57 244.65 259.29C244.69 260.09 245.98 260.37 246.12 259.49C246.89 254.64 248.27 250.22 250.43 245.79C249.96 245.66 249.5 245.54 249.03 245.41C248.49 255.06 249.77 264.47 252.86 273.63C253.17 274.54 254.62 274.15 254.31 273.23C251.26 264.19 250.01 254.93 250.54 245.41C250.58 244.68 249.47 244.37 249.14 245.03C246.94 249.53 245.46 254.14 244.67 259.09C245.16 259.16 245.65 259.22 246.14 259.29C245.63 248.45 246.63 237.65 249.41 227.14C251.8 218.1 255.58 209.52 256.45 200.13C256.55 199.18 255.05 199.19 254.96 200.14Z" fill="#102067"/>
<path d="M253.73 274.9C270.88 273.11 287.09 267.22 301.35 257.52C302.14 256.98 301.39 255.68 300.59 256.22C286.56 265.76 270.6 271.63 253.73 273.4C252.78 273.5 252.77 275 253.73 274.9Z" fill="#102067"/>
<path d="M305.65 228.81C306.23 234.43 306.53 240.06 306.54 245.71C306.92 245.49 307.29 245.28 307.67 245.06C305.72 243.6 303.93 242.11 302.14 240.47C301.74 240.11 301.02 240.23 300.89 240.8C300.4 242.92 300.8 244.37 300.98 246.59C301.24 249.84 300.96 253.05 300.29 256.24C300.09 257.18 301.54 257.58 301.74 256.64C302.21 254.4 302.55 252.19 302.6 249.89C302.65 247.11 301.71 243.93 302.34 241.2C301.92 241.31 301.5 241.42 301.09 241.53C302.97 243.24 304.9 244.83 306.93 246.35C307.4 246.7 308.06 246.22 308.06 245.7C308.05 240.05 307.75 234.42 307.17 228.8C307.05 227.86 305.55 227.85 305.65 228.81Z" fill="#102067"/>
<path d="M322.91 104.47C321.59 102.86 324.44 100.34 325.92 100.38C328.32 100.44 327.9 103.2 327.54 104.77C327.32 105.71 328.77 106.11 328.99 105.17C329.32 103.76 329.63 102.14 328.97 100.77C328.31 99.39 326.83 98.72 325.34 98.92C322.62 99.29 319.83 103.07 321.86 105.53C322.46 106.27 323.51 105.21 322.91 104.47Z" fill="#102067"/>
<path d="M322.99 100.98C318.49 97.19 314.65 92.82 311.45 87.88C309.98 85.61 308.65 83.26 307.44 80.85C306.5 78.99 303.23 73.9 303.6 71.93C305.03 70.33 306.47 68.73 307.9 67.13C308.49 67.89 309.07 68.66 309.66 69.42C310.6 70.8 311.42 72.29 312.18 73.78C313.35 76.07 314.36 78.44 315.39 80.8C318.14 87.09 320.89 93.39 323.65 99.68C324.04 100.56 325.33 99.8 324.95 98.92C320.98 89.83 317.52 80.21 312.7 71.54C311.01 68.5 307.32 61.84 303.15 65.79C298.82 69.89 304.84 79.16 306.9 83.05C310.73 90.29 315.67 96.76 321.95 102.05C322.66 102.66 323.73 101.61 322.99 100.98Z" fill="#102067"/>
<path d="M328.01 99.66C331 95.24 333.88 90.7 337.08 86.43C338.67 84.32 340.37 82.27 342.32 80.48C343.51 79.39 344.77 78.36 346.16 77.52C349.34 75.61 349.42 74.96 351.68 78.73C353.85 80.24 354.13 81.63 352.53 82.9C351.92 83.73 351.26 84.51 350.54 85.24C349.83 85.99 349.08 86.71 348.31 87.4C346.04 89.44 343.55 91.23 340.97 92.86C336.52 95.66 331.77 97.95 327.04 100.23C326.17 100.65 326.93 101.94 327.8 101.53C335.15 97.99 342.6 94.37 348.8 88.97C351.83 86.33 359.36 79.58 354.99 75.05C351.42 71.34 344.55 76.51 341.81 78.92C335.59 84.39 331.32 92.12 326.73 98.91C326.17 99.7 327.47 100.46 328.01 99.66Z" fill="#102067"/>
<path d="M302.02 68.31C299.69 79.45 300.81 90.56 305.27 101.02C305.65 101.91 306.94 101.14 306.57 100.26C302.28 90.19 301.23 79.42 303.47 68.7C303.66 67.77 302.22 67.36 302.02 68.31Z" fill="#102067"/>
<path d="M355.19 78.39C354.94 84.79 354.2 91.13 352.79 97.38C352.06 100.62 351.05 103.46 348.17 105.36C344.7 107.64 339.32 108.4 335.41 107.41C334.47 107.17 334.07 108.62 335.01 108.86C340.03 110.14 348.57 108.85 352.04 104.51C354.46 101.47 354.74 95.77 355.35 92.09C356.1 87.56 356.51 82.99 356.69 78.4C356.73 77.43 355.23 77.43 355.19 78.39Z" fill="#102067"/>
<path d="M336.89 161.17C332.75 163.13 330.24 167.5 330.65 172.07C330.73 173.02 332.24 173.03 332.15 172.07C331.79 167.98 333.94 164.22 337.65 162.46C338.52 162.05 337.76 160.76 336.89 161.17Z" fill="#102067"/>
<path d="M332.52 169.42C333.56 166.96 336.81 167.77 337.38 170.13C338.02 172.77 335.82 174.8 333.57 175.64C332.67 175.98 333.06 177.43 333.97 177.09C337.3 175.84 340.34 172.37 338.43 168.67C336.97 165.84 332.55 165.52 331.22 168.66C330.85 169.54 332.14 170.31 332.52 169.42Z" fill="#102067"/>
<path d="M337.27 152.65C339.2 152.65 339.2 149.65 337.27 149.65C335.34 149.65 335.34 152.65 337.27 152.65Z" fill="#102067"/>
<path d="M340.4 143.09C342.33 143.09 342.33 140.09 340.4 140.09C338.47 140.09 338.47 143.09 340.4 143.09Z" fill="#102067"/>
<path d="M336.54 139.77C338.47 139.77 338.47 136.77 336.54 136.77C334.61 136.77 334.6 139.77 336.54 139.77Z" fill="#102067"/>
<path d="M335.8 129.66C337.73 129.66 337.73 126.66 335.8 126.66C333.87 126.66 333.87 129.66 335.8 129.66Z" fill="#102067"/>
<path d="M328.44 116.23C330.37 116.23 330.37 113.23 328.44 113.23C326.51 113.23 326.51 116.23 328.44 116.23Z" fill="#102067"/>
<path d="M333.96 118.07C335.89 118.07 335.89 115.07 333.96 115.07C332.03 115.07 332.03 118.07 333.96 118.07Z" fill="#102067"/>
<path d="M325.68 110.16C327.61 110.16 327.61 107.16 325.68 107.16C323.75 107.16 323.75 110.16 325.68 110.16Z" fill="#102067"/>
<path d="M308.16 95.45C308.1 95.39 308.04 95.33 307.98 95.27C307.41 94.7 306.43 94.7 305.86 95.27C305.29 95.84 305.29 96.82 305.86 97.39C305.92 97.45 305.98 97.51 306.04 97.57C306.61 98.14 307.59 98.14 308.16 97.57C308.74 97 308.74 96.03 308.16 95.45Z" fill="#102067"/>
<path d="M303.42 89.92C305.35 89.92 305.35 86.92 303.42 86.92C301.49 86.92 301.49 89.92 303.42 89.92Z" fill="#102067"/>
<path d="M303.24 80.17C305.17 80.17 305.17 77.17 303.24 77.17C301.31 77.17 301.31 80.17 303.24 80.17Z" fill="#102067"/>
<path d="M309.31 89.92C311.24 89.92 311.24 86.92 309.31 86.92C307.38 86.92 307.38 89.92 309.31 89.92Z" fill="#102067"/>
<path d="M311.52 95.62C313.45 95.62 313.45 92.62 311.52 92.62C309.59 92.62 309.59 95.62 311.52 95.62Z" fill="#102067"/>
<path d="M314.46 102.98C316.39 102.98 316.39 99.98 314.46 99.98C312.53 99.98 312.53 102.98 314.46 102.98Z" fill="#102067"/>
<path d="M319.25 103.17C321.18 103.17 321.18 100.17 319.25 100.17C317.32 100.17 317.31 103.17 319.25 103.17Z" fill="#102067"/>
<path d="M331.2 105.93C333.13 105.93 333.13 102.93 331.2 102.93C329.27 102.93 329.27 105.93 331.2 105.93Z" fill="#102067"/>
<path d="M333.6 101.51C335.53 101.51 335.53 98.51 333.6 98.51C331.66 98.51 331.66 101.51 333.6 101.51Z" fill="#102067"/>
<path d="M338.38 105.56C340.31 105.56 340.31 102.56 338.38 102.56C336.45 102.56 336.44 105.56 338.38 105.56Z" fill="#102067"/>
<path d="M341.32 98.38C343.25 98.38 343.25 95.38 341.32 95.38C339.39 95.38 339.39 98.38 341.32 98.38Z" fill="#102067"/>
<path d="M343.9 105.93C345.83 105.93 345.83 102.93 343.9 102.93C341.97 102.93 341.96 105.93 343.9 105.93Z" fill="#102067"/>
<path d="M347.58 97.1C349.51 97.1 349.51 94.1 347.58 94.1C345.65 94.1 345.64 97.1 347.58 97.1Z" fill="#102067"/>
<path d="M352.73 88.45C354.66 88.45 354.66 85.45 352.73 85.45C350.8 85.45 350.79 88.45 352.73 88.45Z" fill="#102067"/>
<path d="M350.31 96.33C350.31 96.39 350.31 96.45 350.31 96.51C350.31 97.29 351 98.05 351.81 98.01C352.62 97.97 353.31 97.35 353.31 96.51C353.31 96.45 353.31 96.39 353.31 96.33C353.31 95.55 352.62 94.79 351.81 94.83C350.99 94.87 350.31 95.49 350.31 96.33Z" fill="#102067"/>
<path d="M349.25 104.46C351.18 104.46 351.18 101.46 349.25 101.46C347.32 101.46 347.32 104.46 349.25 104.46Z" fill="#102067"/>
<path d="M256.32 151.58C255.6 149.03 260.69 144.05 263.91 145.34C265.59 146.01 266.89 148.44 266.27 150.57C265.44 153.43 261.74 153.75 261.38 153.78C259.44 153.91 256.77 153.15 256.32 151.58Z" fill="#102067"/>
<path d="M282.87 148.65C281.63 147.11 281.53 144.35 282.87 142.72C284.96 140.19 289.48 141.76 290.06 141.96C292.46 142.79 295.58 145.02 295.22 146.84C294.67 149.65 285.69 152.13 282.87 148.65Z" fill="#102067"/>
<path d="M272.34 157.05C270.86 166.87 269.38 176.7 267.89 186.52C270.96 187.45 274.04 188.39 277.11 189.32C275.52 178.57 273.93 167.81 272.34 157.05Z" fill="#102067"/>
<path d="M262.51 172.07C263.388 172.07 264.1 169.406 264.1 166.12C264.1 162.834 263.388 160.17 262.51 160.17C261.632 160.17 260.92 162.834 260.92 166.12C260.92 169.406 261.632 172.07 262.51 172.07Z" fill="#102067"/>
<path d="M290.66 169.49C291.538 169.49 292.25 166.826 292.25 163.54C292.25 160.254 291.538 157.59 290.66 157.59C289.782 157.59 289.07 160.254 289.07 163.54C289.07 166.826 289.782 169.49 290.66 169.49Z" fill="#102067"/>
<path d="M311.37 311.96C311.49 308.28 311.94 302.78 313.52 296.29C314.3 293.07 315.12 290.68 316.77 285.91C319.3 278.58 320.74 275.45 323.56 267.05C325.24 262.05 325.87 259.79 325.97 256.7C326.09 253.2 325.43 251.75 325.02 247.94C324.44 242.51 325.02 238.4 325.62 234.12C326.42 228.48 327.2 222.95 330.51 216.59C333.91 210.05 338.18 206.1 340.38 204.1C345.55 199.4 350.24 195.13 357.54 194.44C365.26 193.7 371.07 197.42 372.12 198.12C373.1 198.77 376.67 201.24 379.39 205.99C381.93 210.42 381.5 213.03 382.68 224.79C383.77 235.66 384.34 235.46 385.16 245.53C385.66 251.71 385.78 255.88 385.92 259.46C386.23 267.19 386.87 278.32 388.39 292.67C389.19 295.85 389.91 299.38 390.46 303.22C390.91 306.35 391.18 309.3 391.34 312.05C389.51 313.46 387.49 314.9 385.26 316.32C381.17 318.93 377.25 320.91 373.72 322.44C375.68 344.17 376.54 363.05 376.91 378.23C377.08 385.31 377.7 414.06 375.55 452.51C374.84 465.31 373.99 476.13 373.28 484.17C373.26 485.97 372.95 488.73 371.31 491.38C369.87 493.7 368.1 494.83 365.66 496.41C358.31 501.15 353.85 504.15 351.97 505.46C349.86 506.93 346.78 509.25 343.27 512.53C342.69 514.69 341.89 518.01 341.28 522.12C339.84 531.8 341.34 533.14 339.78 541.56C338.72 547.28 338.17 545.89 335.8 555.9C335.3 558.04 334.86 560.06 334.23 560.06C332.99 560.06 332.12 552.11 332.07 551.66C331.87 549.81 331.69 547.17 332.05 539.64C332.13 538.04 332.35 533.59 332.6 527.9C332.72 525.1 332.81 522.43 331.78 519.16C330.81 516.08 330.61 515.37 330.06 515.23C328.62 514.86 326.71 517.85 325.47 519.78C322.9 523.79 321.74 527.35 321.51 528.09C318.87 536.41 317.73 543.24 317.47 544.81C316.25 552.28 315.8 556.04 315.88 558.01C315.92 558.93 316.06 561.54 314.94 564.58C314.44 565.94 313.83 566.98 313.39 567.66C312.1 566.28 310.81 564.9 309.52 563.52C308.4 564.91 307.29 566.29 306.17 567.68C305.24 566.35 303.99 564.26 303.16 561.49C302.35 558.77 302.33 556.7 302.28 553.83C302.06 542.29 301.75 543.86 301.92 541.06C302.04 539.17 302.29 536.72 304.54 527.25C305.51 523.18 306.85 517.78 308.61 511.41C306.03 514.94 304.3 517.96 303.26 519.89C300.34 525.34 299.59 528.45 294.81 539.17C289.74 550.52 293.24 541.07 290.36 546.96C289.73 548.25 288.97 549.92 287.19 550.77C285.98 551.34 284.77 551.32 283.94 551.21C283.72 550.14 283.46 548.6 283.36 546.74C283.14 542.73 283.71 538.32 285.94 532.49C288.78 525.07 292.57 519.96 296.26 515.05C301.19 508.49 305.66 503.97 311.23 498.34C315.44 494.09 319.08 490.68 321.69 488.31C319.06 488.04 316.98 488.39 315.4 488.87C311.58 490.05 310.28 492.17 307.49 491.79C306.03 491.59 304.16 490.71 303.87 489.37C303.66 488.43 304.17 487.01 309.62 483.07C315.2 479.04 319.96 476.73 320.67 476.38C326.62 473.51 326.48 474.22 332.73 471.29C340.26 467.77 344.05 465.06 345.08 464.31C347.81 462.33 349.9 460.45 351.33 459.08C351.25 455.31 350.95 449.63 349.88 442.8C348.66 435.03 347.13 430.17 345.08 422.89C345.08 422.89 341.16 408.93 337.23 391.35C334.54 379.3 333.07 372.64 332.14 363.01C331 351.22 331.45 343.13 331.7 339.61C332.13 333.8 332.89 328.9 333.59 325.22C330.94 324.46 327.9 323.36 324.66 321.72C318.67 318.65 314.29 314.92 311.37 311.96Z" fill="white"/>
<path d="M327.08 258.64C324.41 243.73 325.31 227.84 333.15 214.53C340.86 201.46 357.08 188.84 372.02 198.95C380.13 204.44 380.66 212.84 381.62 221.74C382.47 229.63 383.25 237.52 383.97 245.42C385.44 261.55 386.64 277.69 387.6 293.86C387.66 294.82 389.16 294.83 389.1 293.86C387.89 273.41 386.28 252.98 384.24 232.59C383.43 224.46 383.63 215.02 380.73 207.26C378.43 201.09 372.79 196.68 366.66 194.63C352.92 190.04 339.53 201.57 332.66 212.46C323.9 226.34 322.81 243.22 325.64 259.04C325.8 259.99 327.24 259.59 327.08 258.64Z" fill="#102067"/>
<path d="M324.98 254.18C322.84 274.39 310.36 292.17 310.63 312.79C310.64 313.75 312.14 313.76 312.13 312.79C311.86 292.21 324.34 274.38 326.48 254.18C326.58 253.22 325.08 253.23 324.98 254.18Z" fill="#102067"/>
<path d="M311.08 313.21C324.02 326.21 343.59 328.97 361.03 325.89C370.88 324.15 380.53 320.45 388.91 314.96C391.3 313.4 392.41 312.54 392.23 309.63C391.89 303.93 390.31 298.03 389.11 292.46C388.91 291.52 387.46 291.92 387.66 292.86C388.59 297.2 389.68 301.62 390.17 306.04C390.74 308.28 390.54 310.5 389.57 312.72C388.63 313.36 387.67 313.98 386.7 314.58C385.24 315.48 383.75 316.32 382.24 317.11C374.27 321.27 365.52 323.98 356.6 325.04C340.79 326.92 323.7 323.76 312.14 312.15C311.46 311.46 310.39 312.52 311.08 313.21Z" fill="#102067"/>
<path d="M311.5 306.57C321.51 317.59 336.48 319.76 350.68 319.45C365.23 319.13 380.83 316.8 390.66 304.98C391.27 304.24 390.22 303.18 389.6 303.92C380.02 315.45 364.85 317.64 350.68 317.96C336.88 318.27 322.31 316.24 312.57 305.52C311.91 304.79 310.86 305.86 311.5 306.57Z" fill="#102067"/>
<path d="M333.27 324.15C322.57 370.44 347.86 414.29 350.82 459.87C350.88 460.83 352.38 460.84 352.32 459.87C349.37 414.47 324.07 370.61 334.71 324.55C334.93 323.61 333.48 323.21 333.27 324.15Z" fill="#102067"/>
<path d="M350.55 459.09C343.52 465.34 335.69 469.96 326.92 473.3C320.41 475.79 313.6 477.87 308.26 482.56C306.37 484.22 300.63 489.66 303.31 492.54C304.33 493.64 305.64 493.22 306.88 492.85C309.29 492.14 311.48 490.65 313.95 489.95C316.61 489.2 319.31 488.9 322.07 488.81C323.03 488.78 323.04 487.28 322.07 487.31C319.18 487.4 316.35 487.72 313.55 488.5C312.49 488.79 307.96 491.31 307.13 491.09C301.41 489.54 310.49 482.58 312.08 481.5C314.98 479.55 318.21 478.17 321.46 476.91C332.56 472.6 342.6 468.15 351.62 460.14C352.34 459.51 351.27 458.45 350.55 459.09Z" fill="#102067"/>
<path d="M372.96 322.43C377.79 376.87 377.5 431.66 372.08 486.05C371.98 487.01 373.49 487 373.58 486.05C379 431.66 379.3 376.87 374.46 322.43C374.38 321.48 372.88 321.47 372.96 322.43Z" fill="#102067"/>
<path d="M328.3 480.21C310.15 500.64 281.59 519.16 282.66 549.86C282.69 550.82 284.19 550.83 284.16 549.86C283.1 519.63 311.49 501.38 329.36 481.27C330 480.56 328.94 479.49 328.3 480.21Z" fill="#102067"/>
<path d="M283.01 551.07C287.45 556.16 292.56 544.54 293.74 541.72C298.19 531.06 303.1 520.91 309.46 511.24C309.99 510.43 308.69 509.68 308.16 510.48C303.82 517.08 299.94 523.93 296.62 531.1C295.52 533.47 287.64 554.11 284.07 550.01C283.43 549.28 282.38 550.34 283.01 551.07Z" fill="#102067"/>
<path d="M310.33 504.78C305.7 515.95 302.76 527.69 301.79 539.75C301.08 548.61 299.8 560.67 305.65 568.17C306.24 568.93 307.3 567.86 306.71 567.11C300.69 559.39 302.58 545.18 303.65 536.08C304.89 525.42 307.67 515.09 311.78 505.18C312.14 504.29 310.69 503.9 310.33 504.78Z" fill="#102067"/>
<path d="M306.59 568.58C308.65 567.68 309.36 565.98 309.74 563.81C310.5 559.43 310.32 554.75 310.55 550.32C311.12 539.43 312.13 528.55 316.92 518.59C317.34 517.72 316.04 516.96 315.62 517.83C312.27 524.78 310.62 532.17 309.81 539.8C309.37 543.88 309.17 547.98 308.96 552.07C308.78 555.68 309.92 565.5 305.84 567.27C304.95 567.67 305.71 568.96 306.59 568.58Z" fill="#102067"/>
<path d="M308.81 563.68C309.45 565.87 311.06 567.55 313.2 568.34C314.11 568.68 314.5 567.23 313.6 566.89C311.97 566.29 310.75 564.93 310.26 563.27C309.98 562.36 308.53 562.75 308.81 563.68Z" fill="#102067"/>
<path d="M312.73 568.5C315.15 566.87 315.88 564.7 316.28 561.84C317.03 556.59 317.24 551.28 318.04 546.02C319.57 536.02 321.6 522.14 330.45 515.84C331.23 515.28 330.48 513.98 329.69 514.54C323.09 519.24 320.62 527.33 318.73 534.86C317.53 539.63 316.7 544.48 316.07 549.35C315.44 554.18 316.49 564.17 311.97 567.2C311.17 567.74 311.92 569.04 312.73 568.5Z" fill="#102067"/>
<path d="M372.53 484.16C372.48 493.15 363.75 496.45 357.34 500.73C352.22 504.15 347.37 507.93 342.73 511.98C342 512.62 343.07 513.67 343.79 513.04C350.51 507.17 357.69 502.26 365.24 497.53C370.42 494.29 373.99 490.55 374.03 484.15C374.04 483.19 372.54 483.19 372.53 484.16Z" fill="#102067"/>
<path d="M343.1 510.3C338.09 525.35 341.63 541.93 335.3 556.62C334.92 557.5 336.21 558.26 336.6 557.38C343.01 542.52 339.5 525.89 344.56 510.7C344.85 509.78 343.4 509.38 343.1 510.3Z" fill="#102067"/>
<path d="M330 515.88C333.19 521.19 331.69 529.15 331.58 535.08C331.46 541.23 330.97 547.52 331.42 553.66C331.54 555.37 331.43 560.55 334.05 560.76C336.32 560.93 336.48 557.28 336.56 555.88C336.62 554.92 335.12 554.92 335.06 555.88C333.02 557.54 332.31 556.81 332.92 553.66C332.85 552.56 332.81 551.46 332.81 550.36C332.79 548.64 332.85 546.93 332.88 545.21C332.96 541.22 333.03 537.23 333.11 533.24C333.22 527.39 334.46 520.39 331.29 515.13C330.8 514.3 329.5 515.05 330 515.88Z" fill="#102067"/>
<path d="M313.02 298.97C315.61 303.63 318.2 308.3 320.78 312.96C321.25 313.8 322.54 313.05 322.08 312.2C319.49 307.54 316.9 302.87 314.32 298.21C313.84 297.37 312.55 298.12 313.02 298.97Z" fill="#102067"/>
<path d="M315.03 290.87C321.3 300.32 328.06 309.4 335.31 318.12C335.93 318.86 336.98 317.8 336.37 317.06C329.2 308.44 322.53 299.45 316.33 290.11C315.79 289.31 314.49 290.06 315.03 290.87Z" fill="#102067"/>
<path d="M318.75 280.41C329.22 293.76 340.47 306.43 352.48 318.41C353.16 319.09 354.23 318.03 353.54 317.35C341.53 305.37 330.28 292.7 319.81 279.35C319.22 278.59 318.16 279.66 318.75 280.41Z" fill="#102067"/>
<path d="M322.91 267.43C335.75 285.26 350.63 301.45 367.34 315.71C368.07 316.33 369.14 315.28 368.4 314.65C351.78 300.47 336.97 284.4 324.2 266.67C323.65 265.89 322.35 266.64 322.91 267.43Z" fill="#102067"/>
<path d="M325.7 257.6C324.73 257.6 328.57 261.7 328.94 262.06C330.05 263.13 331.16 264.2 332.27 265.26C334.5 267.39 336.75 269.5 339.01 271.6C343.76 276 348.57 280.33 353.44 284.6C362.96 292.92 372.72 300.95 382.68 308.73C383.43 309.32 384.5 308.26 383.74 307.67C372.56 298.94 361.64 289.89 351.03 280.48C345.96 275.98 340.95 271.4 336.02 266.75C333.33 264.21 330.68 261.63 328.01 259.07C327.24 258.33 326.62 257.33 325.49 257.32C325.09 257.32 324.73 257.67 324.74 258.07C324.74 258.17 324.74 258.26 324.74 258.36C324.75 258.77 325.08 259.11 325.49 259.11C325.56 259.11 325.63 259.11 325.7 259.11C326.66 259.1 326.67 257.6 325.7 257.6Z" fill="#102067"/>
<path d="M324.98 243.77C345.18 260.46 365.76 276.68 386.71 292.42C387.48 293 388.23 291.7 387.47 291.12C366.62 275.46 346.14 259.32 326.04 242.71C325.3 242.1 324.23 243.15 324.98 243.77Z" fill="#102067"/>
<path d="M327.43 226.64C347.04 241.35 366.65 256.06 386.26 270.78C387.03 271.36 387.78 270.06 387.02 269.48C367.41 254.77 347.8 240.06 328.19 225.34C327.41 224.76 326.66 226.06 327.43 226.64Z" fill="#102067"/>
<path d="M333.94 211.76C351.76 222.14 368.37 234.35 383.6 248.26C384.31 248.91 385.38 247.85 384.66 247.2C369.34 233.21 352.63 220.92 334.7 210.47C333.86 209.98 333.1 211.27 333.94 211.76Z" fill="#102067"/>
<path d="M344.9 201.72C348.42 202.24 351.12 204.48 353.93 206.49C357.52 209.06 361.05 211.72 364.51 214.46C370.36 219.1 376.01 223.99 381.48 229.07C382.19 229.73 383.25 228.67 382.54 228.01C376.39 222.3 370.01 216.84 363.38 211.69C358.32 207.76 351.87 201.26 345.29 200.28C344.36 200.13 343.95 201.58 344.9 201.72Z" fill="#102067"/>
<path d="M359.07 195.24C367.24 201.12 374.58 207.91 381.09 215.59C381.72 216.33 382.77 215.26 382.15 214.53C375.56 206.76 368.1 199.9 359.83 193.95C359.05 193.38 358.3 194.68 359.07 195.24Z" fill="#102067"/>
<path d="M0.360001 140.66C4.6 186.31 11.77 231.64 21.83 276.37C22.04 277.31 23.49 276.91 23.28 275.97C13.25 231.37 6.09 186.18 1.86 140.66C1.77 139.71 0.270001 139.7 0.360001 140.66Z" fill="#102067"/>
<path d="M1.69001 139.56C63.38 146.03 125.42 148.67 187.43 147.47C188.39 147.45 188.4 145.95 187.43 145.97C125.42 147.17 63.37 144.53 1.69001 138.06C0.73001 137.96 0.74001 139.46 1.69001 139.56Z" fill="#102067"/>
<path d="M23.57 279.29C82.4 289.12 142.51 298.11 201.98 288.38C202.93 288.22 202.53 286.78 201.58 286.93C142.39 296.62 82.51 287.62 23.97 277.84C23.02 277.69 22.62 279.13 23.57 279.29Z" fill="#102067"/>
<path d="M187.77 151.79C197.02 195.83 194.85 241.3 203.7 285.4C203.89 286.35 205.34 285.95 205.15 285C196.3 240.9 198.47 195.43 189.22 151.39C189.02 150.45 187.57 150.85 187.77 151.79Z" fill="#102067"/>
<path d="M25.29 228.76C25.65 236.32 26.55 243.84 28.18 251.24C29.43 256.9 31.04 259.63 36.9 260.93C52.62 264.42 68.84 266.44 84.85 268.05C118.18 271.4 151.78 271.46 185.14 268.35C186.09 268.26 186.1 266.76 185.14 266.85C155.64 269.6 125.94 269.89 96.4 267.58C81.06 266.38 65.78 264.5 50.61 261.92C47.12 261.33 43.63 260.7 40.16 260.03C35.15 259.07 31.8 258.4 30.05 252.67C27.74 245.09 27.18 236.63 26.8 228.76C26.75 227.8 25.25 227.8 25.29 228.76Z" fill="#102067"/>
<path d="M26.28 228.35C55.86 230.94 85.5 232.82 115.18 233.94C129.69 234.49 144.2 234.86 158.72 235.05C162.68 235.1 166.64 235.14 170.6 235.17C172.25 235.18 173.9 235.19 175.55 235.2C178.3 235.21 179.3 235.41 180.25 238.3C181.36 241.69 181.12 246.3 181.39 249.87C181.68 253.73 181.87 257.6 182 261.48C182.03 262.44 183.53 262.45 183.5 261.48C183.2 252.37 182.44 243.31 181.22 234.27C181.18 233.95 180.79 233.72 180.5 233.72C129.02 233.64 77.57 231.35 26.29 226.86C25.32 226.77 25.33 228.27 26.28 228.35Z" fill="#102067"/>
<path d="M15.76 173.8C16.45 181.51 17.69 189.14 19.65 196.63C21.12 202.26 21.77 206.18 27.5 208.22C42.22 213.45 58.84 214.55 74.31 215.28C106.87 216.8 140.39 218 172.51 211.58C173.46 211.39 173.06 209.94 172.11 210.13C143.01 215.95 113.11 215.02 83.6 214.13C69.15 213.69 54.63 212.89 40.43 209.98C37.11 209.3 33.81 208.5 30.55 207.57C27.58 206.72 24.58 205.72 23.06 202.83C22.31 201.4 22.01 199.65 21.58 198.09C19.38 190.14 17.98 182.03 17.25 173.81C17.17 172.85 15.67 172.84 15.76 173.8Z" fill="#102067"/>
<path d="M18.87 175.62C48.28 178.15 77.76 179.82 107.28 180.55C121.87 180.91 136.46 181.05 151.06 180.97C154.71 180.95 158.36 180.91 162 180.87C163.74 180.85 166.39 180.25 167.97 180.78C170.62 181.67 170.37 183.61 170.6 186.02C171.32 193.48 171.98 200.95 172.67 208.42C172.76 209.37 174.26 209.38 174.17 208.42C173.42 200.31 172.78 192.17 171.92 184.07C171.45 179.72 170.22 179.29 165.98 179.31C149.72 179.4 133.48 179.56 117.23 179.27C84.4 178.68 51.59 176.95 18.88 174.13C17.91 174.04 17.92 175.54 18.87 175.62Z" fill="#102067"/>
<path d="M27.02 198.91C32.2 200.61 37.48 201.4 42.93 201.3C43.89 201.28 43.9 199.78 42.93 199.8C37.61 199.9 32.47 199.12 27.42 197.46C26.5 197.16 26.1 198.61 27.02 198.91Z" fill="#102067"/>
<path d="M28.3 197.35C27.95 195.56 27.7 193.77 27.65 191.95C27.61 190.66 27.32 187.58 27.98 186.52C29.28 184.41 33.86 184.87 36.03 184.93C37.27 184.96 39.94 184.75 40.87 185.5C42.38 186.72 42.21 188.4 42.12 190.08C41.94 193.35 41.76 196.61 41.58 199.88C41.53 200.84 43.03 200.84 43.08 199.88C43.27 196.41 43.46 192.94 43.66 189.47C43.76 187.63 44.17 185.73 42.46 184.57C40.79 183.44 37.95 183.48 36.03 183.43C33.06 183.35 30.13 183.76 27.25 184.48C27.02 184.54 26.77 184.76 26.73 185C25.98 189.28 26.02 193.48 26.86 197.75C27.04 198.69 28.48 198.29 28.3 197.35Z" fill="#102067"/>
<path d="M31.71 183.83C30.61 182.24 31.83 179.79 33.75 179.61C36.02 179.39 37.41 182.11 36.92 184.04C36.69 184.98 38.13 185.38 38.37 184.44C39.11 181.47 36.89 177.78 33.55 178.13C30.64 178.43 28.72 182.14 30.42 184.59C30.96 185.38 32.26 184.63 31.71 183.83Z" fill="#102067"/>
<path d="M34.12 190.4C34.12 191.82 34.12 193.24 34.12 194.66C34.12 195.63 35.62 195.63 35.62 194.66C35.62 193.24 35.62 191.82 35.62 190.4C35.62 189.44 34.12 189.44 34.12 190.4Z" fill="#102067"/>
<path d="M40.92 242.94C38.39 242.1 41.84 236.38 44.12 237.76C45.31 238.48 46.09 242.49 44.69 243.2C43.83 243.64 44.59 244.93 45.45 244.5C47.15 243.63 46.96 241.34 46.69 239.74C46.4 238.04 45.48 236.13 43.5 236.05C39.89 235.9 36.11 242.92 40.53 244.39C41.44 244.69 41.83 243.24 40.92 242.94Z" fill="#102067"/>
<path d="M41.58 244.06C39.16 243.28 36.61 244.29 35.1 246.3C33.15 248.9 33.51 252.38 34.47 255.28C34.77 256.19 36.22 255.8 35.92 254.88C35.2 252.7 34.74 250.2 35.81 248.05C36.81 246.04 38.96 244.79 41.18 245.5C42.1 245.8 42.5 244.35 41.58 244.06Z" fill="#102067"/>
<path d="M44.65 245.58C47.19 244.31 49.82 246.41 50.62 248.79C51.39 251.08 50.96 253.65 50.58 255.97C50.43 256.91 51.87 257.32 52.03 256.37C52.56 253.08 53.16 249.17 51 246.3C49.32 244.06 46.45 243.01 43.88 244.29C43.03 244.71 43.79 246.01 44.65 245.58Z" fill="#102067"/>
<path d="M208.11 65.48C202.96 55.76 205.3 44.27 211.37 35.52C217.9 26.1 228.78 20.53 239.27 16.69C261.12 8.69998 284.92 3.62998 308.22 3.41998C350.97 3.02998 397.5 23.7 409.5 68.1C421.44 112.3 386.12 146.02 351.11 166.02C331.83 177.03 310.83 184.99 289.1 189.55C268.84 193.8 248.06 193.78 227.72 197.41C217.3 199.27 206.95 202.25 197.73 207.57C190.1 211.97 181 218.52 181.85 228.44C183.85 251.85 218.74 251.24 235.11 248.98C237.01 248.72 236.2 245.83 234.31 246.09C221.86 247.8 206.37 248.22 194.97 242.09C190.08 239.46 186 235.04 184.99 229.43C183.62 221.84 189.59 216.53 195.25 212.67C213.3 200.36 236.05 198.88 257.13 196.95C300.39 192.98 341.99 179.72 376.56 152.64C391.56 140.88 405.07 126.03 411.37 107.74C417.66 89.48 415.21 69.46 406.67 52.35C387.43 13.77 342.38 -1.41002 301.67 0.609977C288.41 1.26998 275.24 3.49998 262.37 6.68998C250.55 9.60998 238.4 12.92 227.52 18.51C210.36 27.33 195.15 47.44 205.52 67C206.43 68.7 209.02 67.19 208.11 65.48Z" fill="#D47293"/>
<path d="M402.78 218.55C409.37 220.07 414.04 228.6 416.57 234.36C419.14 240.2 420.47 246.55 420.72 252.91C421.23 265.92 417.4 278.93 410.05 289.66C393.99 313.12 365.79 324.37 338.86 329.56C322.65 332.68 306.18 333.99 289.79 335.75C274.04 337.45 258.37 339.78 242.84 342.93C227.13 346.12 211.58 350.1 196.26 354.84C185.27 358.24 173.89 362.06 164.84 369.42C155.74 376.83 150.64 387.77 152.89 399.51C154.98 410.44 162.58 419.78 173.13 423.47C174.96 424.11 175.74 421.21 173.93 420.58C162.36 416.53 154.61 404.35 155.35 392.13C156.19 378.33 167.87 369.38 179.5 364.08C192.95 357.95 207.79 354.31 222.07 350.71C237.62 346.8 253.36 343.66 269.22 341.32C300.29 336.73 332.61 336.78 362.58 326.48C385.26 318.68 407.81 304.23 418.01 281.66C423.19 270.19 425.05 257.17 422.83 244.75C421.05 234.8 414.77 218.23 403.58 215.65C401.7 215.22 400.9 218.11 402.78 218.55Z" fill="#D47293"/>
<path d="M197.08 436.3C197.09 429 196.04 420.13 188.71 416.45C183.16 413.66 176.25 416.17 172.84 421.13C165.27 432.15 177.67 452.26 190.96 444.49C192.63 443.52 191.12 440.92 189.45 441.9C178.6 448.24 169.19 430.61 175.75 422.3C179.16 417.99 185.46 416.76 189.66 420.74C193.86 424.72 194.09 430.91 194.08 436.29C194.08 438.23 197.08 438.23 197.08 436.3Z" fill="#D47293"/>
<path d="M189.1 444.49C199.25 452.16 209.99 458.89 221.31 464.69C223.03 465.57 224.55 462.98 222.82 462.1C211.5 456.31 200.76 449.57 190.61 441.9C189.07 440.73 187.57 443.34 189.1 444.49Z" fill="#D47293"/>
<path d="M195.35 438.64C199.88 442 204.41 445.35 208.94 448.71C214.25 452.65 217.5 456.19 220.01 462.39C220.73 464.16 223.63 463.38 222.9 461.59C220.92 456.7 218.8 452.55 214.61 449.21C208.86 444.63 202.76 440.42 196.86 436.04C195.31 434.9 193.81 437.51 195.35 438.64Z" fill="#D47293"/>
<path d="M184.9 416.06C183.72 410.28 189.91 406.17 195.03 407.55C199.44 408.74 201.16 412.74 202.19 416.77C202.67 418.64 205.56 417.85 205.08 415.97C203.44 409.59 199.31 403.72 191.96 404.29C185.64 404.78 180.72 410.57 182 416.86C182.4 418.75 185.29 417.95 184.9 416.06Z" fill="#D47293"/>
<path d="M195.55 430.02C198.83 430.35 201.91 428.75 203.74 426.05C204.83 424.45 202.23 422.95 201.15 424.54C199.88 426.41 197.76 427.24 195.55 427.02C193.63 426.83 193.64 429.83 195.55 430.02Z" fill="#D47293"/>
<path d="M202.47 426.8C210.58 428.39 218.5 430.56 226.29 433.31C228.11 433.95 228.9 431.06 227.09 430.42C219.3 427.67 211.37 425.5 203.27 423.91C201.38 423.54 200.57 426.43 202.47 426.8Z" fill="#D47293"/>
<path d="M203.6 419.58C207.71 421.18 211.9 422.64 215.94 424.4C219.88 426.12 222.27 428.95 224.75 432.35C225.88 433.89 228.48 432.4 227.34 430.84C224.99 427.63 222.56 424.39 218.97 422.5C214.39 420.09 209.2 418.56 204.39 416.69C202.59 415.98 201.81 418.88 203.6 419.58Z" fill="#D47293"/>
<path d="M225.56 448.6C232.38 450.91 239.22 449.9 246.27 449.84C253.89 449.78 260.76 451.87 266.19 457.42C268.81 460.11 270.88 463.37 272.05 466.95C272.43 468.1 273.55 471.08 273.02 472.04C271.18 472.58 269.34 473.11 267.5 473.65C265.74 470.44 267.23 469.46 271.96 470.72C274.49 471.97 276.87 475.22 278.62 477.34C281.22 480.48 283.3 483.93 285.08 487.59C285.93 489.33 288.51 487.81 287.67 486.08C284.86 480.3 281.14 475.07 276.44 470.67C273.93 468.32 269.32 463.66 265.63 466.53C259.96 470.95 267.67 483.22 273.89 477.43C281.1 470.72 270.86 456.95 265.38 452.7C260.81 449.15 255.47 447.27 249.72 446.91C241.82 446.42 234.06 448.32 226.37 445.72C224.52 445.09 223.73 447.99 225.56 448.6Z" fill="#D47293"/>
</g>
<defs>
<clipPath id="clip0_122_777">
<rect width="571" height="569" fill="white"/>
</clipPath>
</defs>
</svg>
